<?xml version="1.0" standalone="no"?>
<!DOCTYPE svg PUBLIC "-//W3C//DTD SVG 1.1//EN" "http://www.w3.org/Graphics/SVG/1.1/DTD/svg11.dtd">
<svg xmlns="http://www.w3.org/2000/svg">
<metadata>Generated by Fontastic.me</metadata>
<defs>
<font id="streamline-30px-filled-in" horiz-adv-x="512">
<font-face font-family="streamline-30px-filled-in" units-per-em="512" ascent="480" descent="-32"/>
<missing-glyph horiz-adv-x="512" />

<glyph unicode="&#97;" d="M204 393l6-120 95 0 6 120z m12-239l83 0 5 102-93 0z m0-17l7-137c0 0 0 0 0 0l69 0c0 0 0 0 0 0l6 137z m-106 0l11-129c0-1 0-1 0-2 0 0 1-1 1-1 0-1 0-1 1-2 0 0 0 0 1-1 0 0 1 0 1-1 1 0 1 0 1 0 1-1 2-1 3-1l77 0-7 137z m77 256l-99 0 10-120 95 0z m6-137l-93 0 8-102 91 0z m-12 256c0 0 0 0 0 0l-128 0c-5 0-9-4-9-9 0-4 4-8 9-8l26 0 7-85 100 0z m141-239l95 0 10 120-99 0z m-13-273l76 0c2 0 3 0 4 1 0 0 0 0 1 0 0 1 1 1 1 1 1 1 1 1 1 1 0 1 1 1 1 2 0 0 0 1 1 1 0 1 0 1 0 2l11 129-90 0z m7 154l90 0 9 102-94 0z m146 358l-128 0c0 0 0 0 0 0l-5-102 100 0 7 85 26 0c5 0 9 4 9 8 0 5-4 9-9 9z m-150-102l5 102-119 0 5-102z"/>
<glyph unicode="&#98;" d="M508 435l-145 0 0 60c0 5-4 8-9 8l-188 0c-4 0-8-3-8-8l0-60-145 0c-5 0-9-4-9-8 0-5 4-9 9-9l68 0 0-418 358 0 0 418 69 0c4 0 8 4 8 9 0 4-4 8-8 8z m-333-341c0-5-4-9-9-9-4 0-8 4-8 9l0 239c0 5 4 8 8 8 5 0 9-3 9-8z m0 392l171 0 0-51-171 0z m94-392c0-5-4-9-9-9-4 0-8 4-8 9l0 239c0 5 4 8 8 8 5 0 9-3 9-8z m94 0c0-5-4-9-9-9-5 0-8 4-8 9l0 239c0 5 3 8 8 8 5 0 9-3 9-8z"/>
<glyph unicode="&#99;" d="M495 186c0 1-1 2-1 3l-68 152c-1 1-1 2-2 3l-33 33-30 83c-1 1-1 2-2 3-9 10-25 15-42 15-17 0-32-5-41-15-2-1-3-4-3-6l0-129c45-4 77-24 77-50 0-5-4-9-9-9-4 0-8 4-8 9 0 14-24 30-60 33l0-189c0 0 0 0 0 0 2-65 55-117 120-117 65 0 119 54 119 119 0 23-6 44-17 62z m-102-164c-57 0-103 46-103 102 0 46 48 102 105 102 29 0 58-16 83-45 11-16 17-36 17-57 0-56-46-102-102-102z m-198 456c-17 0-33-5-42-15-1-1-1-2-2-3l-30-83-33-33c-1-1-2-2-2-3l-68-153c0-1 0-1-1-2-11-18-17-39-17-62 0-65 54-119 119-119 65 0 118 52 120 117 0 0 0 0 0 0l0 189c-36-3-60-19-60-33 0-5-4-9-8-9-5 0-9 4-9 9 0 26 32 46 77 50l0 129c0 2-1 5-3 6-9 10-24 15-41 15z m27-354c0-56-46-102-103-102-56 0-102 46-102 102 0 21 6 41 17 57 25 29 54 45 83 45 57 0 105-56 105-102z m-179-3c0-5 4-8 9-8 4 0 8 3 8 8 0 31 25 56 56 56 5 0 9 4 9 9 0 4-4 8-9 8-40 0-73-33-73-73z m353 73c-40 0-73-33-73-73 0-5 4-8 8-8 5 0 9 3 9 8 0 31 25 56 56 56 5 0 8 4 8 9 0 4-3 8-8 8z"/>
<glyph unicode="&#100;" d="M485 402c-10 6-22 7-33 4 0 0 0 0-1 0-6-2-17-8-25-15-6-5-17-21-21-28-1-3-4-4-7-4-2 0-3 0-4 1-4 2-6 7-4 11 4 8 17 26 25 33 7 6 19 14 28 17-2 3-5 5-8 8-15 12-40 18-65 18-1 0-1-1-2-1-4 1-9 0-13 0-2 0-4 0-6-1-13-1-26-5-37-10-1-1-2-1-4-1-3 0-6 2-7 5-2 4-1 9 4 11 9 5 20 8 31 11-17 21-45 42-81 42-35 0-70-20-89-43 11-2 23-6 33-11 5-2 6-7 4-11-1-4-4-5-7-5-2 0-3 0-4 1-12 5-24 9-37 11-26 3-54-1-73-13-5-3-10-7-14-12 10-3 20-10 27-16 8-7 21-25 25-33 2-4 0-9-4-11-1-1-3-1-4-1-3 0-6 1-8 4-3 7-14 23-20 28-8 7-19 13-26 15 0 0 0 0 0 0-12 3-24 2-34-4-16-9-25-28-25-52 0-19 7-34 20-41 15-7 34-6 53 3 8-14 23-25 43-32 30-11 67-10 89 1 1-1 2-1 3-2 14-14 14-23 14-51 0-3 0-5 0-8-28 4-60-15-60-49 0-13 5-25 14-32 11-9 28-13 45-10-7-49-53-58-99-67-39-8-79-15-79-53 0-5 3-9 8-9l409 0c5 0 9 4 9 9 0 38-41 45-80 53-45 9-92 18-99 67 5-1 9-1 13-1 27 0 46 18 46 43 0 34-32 53-59 49 0 3 0 5-1 8 0 28 0 37 14 51 1 1 3 1 4 2 18-10 51-11 79-5 16 4 37 12 51 28 14-9 32-11 46-4 18 9 29 27 29 50 0 24-10 43-26 52z"/>
<glyph unicode="&#101;" d="M471 430c-51 52-138 52-190 0l-249-249c-40-40-40-102-1-141 20-20 45-30 70-30 26 0 51 10 71 30l241 241c23 23 23 59 0 83-11 11-26 17-41 17-15 0-30-6-41-17l-175-175c-6-7-6-17 0-24 7-7 18-7 24 0l175 174c9 10 25 10 34 0 10-9 10-24 0-34l-241-241c-26-26-67-26-93 0-26 26-25 66 1 93l249 249c39 38 104 38 142 0 19-19 29-42 29-67 0-25-10-48-29-67l-179-179c-7-7-7-18 0-24 6-7 17-7 24 0l179 179c25 25 39 57 39 91 0 34-14 66-39 91z"/>
<glyph unicode="&#102;" d="M255 512c-76 0-134-61-134-142l0-259c0-65 43-111 103-111 57 0 96 44 96 111l0 206c0 49-25 80-65 80-41 0-68-32-68-80l0-165c0-9 8-17 17-17 10 0 17 8 17 17l0 165c0 17 5 46 34 46 21 0 31-16 31-46l0-206c0-36-16-77-62-77-40 0-69 32-69 77l0 259c0 63 42 108 100 108 56 0 97-45 97-108l0-187c0-9 8-17 17-17 10 0 17 8 17 17l0 187c0 81-56 142-131 142z"/>
<glyph unicode="&#103;" d="M486 273l-17 0c-9 104-92 187-196 196l0 26c0 9-8 17-17 17-9 0-17-8-17-17l0-26c-104-9-187-92-196-196l-26 0c-9 0-17-8-17-17 0-9 8-17 17-17l26 0c9-104 92-187 196-196l0-26c0-9 8-17 17-17 9 0 17 8 17 17l0 26c104 9 187 92 196 196l17 0c10 0 17 8 17 17 0 9-7 17-17 17z m-247-195c-85 8-153 76-161 161l69 0c7-48 44-85 92-92z m0 103c-29 7-51 29-58 58l58 0z m0 92l-58 0c7 29 29 51 58 58z m0 92c-48-7-85-44-92-92l-69 0c8 85 76 153 161 161z m34-34c29-7 51-29 58-58l-58 0z m0-92l58 0c-7-29-29-51-58-58z m0-161l0 69c48 7 85 44 92 92l69 0c-8-85-76-153-161-161z m92 195c-7 48-44 85-92 92l0 69c85-8 153-76 161-161z"/>
<glyph unicode="&#104;" d="M487 273l-35 0c-8 95-84 170-178 178l0 44c0 9-8 17-18 17-9 0-17-8-17-17l0-44c-94-8-170-83-178-178l-43 0c-10 0-18-8-18-17 0-9 8-17 18-17l43 0c8-95 84-170 178-178l0-44c0-9 8-17 17-17 10 0 18 8 18 17l0 44c94 8 170 83 178 178l35 0c9 0 17 8 17 17 0 9-8 17-17 17z m-120-34l51 0c-8-76-69-136-144-144l0 42c0 9-8 17-18 17-9 0-17-8-17-17l0-42c-75 8-136 68-144 144l42 0c9 0 17 8 17 17 0 9-8 17-17 17l-42 0c8 76 69 136 144 144l0-33c0-9 8-17 17-17 10 0 18 8 18 17l0 33c75-8 136-68 144-144l-51 0c-9 0-17-8-17-17 0-9 8-17 17-17z"/>
<glyph unicode="&#105;" d="M256 307c9 0 17 8 17 17l0 171c0 9-8 17-17 17-10 0-17-8-17-17l0-171c0-9 7-17 17-17z m-69-34l-170 0c-10 0-17-8-17-17 0-9 7-17 17-17l170 0c10 0 18 8 18 17 0 9-8 17-18 17z m69-68c-10 0-17-8-17-17l0-171c0-9 7-17 17-17 9 0 17 8 17 17l0 171c0 9-8 17-17 17z m239 68l-171 0c-9 0-17-8-17-17 0-9 8-17 17-17l171 0c9 0 17 8 17 17 0 9-8 17-17 17z m-239 9c-14 0-26-12-26-26 0-14 12-26 26-26 14 0 25 12 25 26 0 14-11 26-25 26z m0-35c-5 0-9 4-9 9 0 5 4 9 9 9 4 0 8-4 8-9 0-5-4-9-8-9z"/>
<glyph unicode="&#106;" d="M225 94l-88 89 22 22 88-89z m-82 2c-2-1-4-2-6-2-3 0-5 1-6 2-4 4-4 9 0 12l28 29-35 34-113-114c-3-2-3-6-2-10 2-3 5-4 8-4 0 0 1 0 1 0l179 25c2 1 4 1 5 3l11 11-42 42z m117 32l-89 89 22 22 89-89z m215 305c-12 12-31 20-49 20-13 0-23-4-31-12l-190-190 89-89 190 190c20 21 12 60-9 81z"/>
<glyph unicode="&#107;" d="M84 69c45-43 107-69 174-69 68 0 129 26 175 69l-175 175z m-13 362c-42-46-69-107-69-175 0-68 27-129 69-175l175 175z m374 0l-175-175 175-175c43 46 69 107 69 175 0 68-26 129-69 175z m-12 12c-46 43-107 69-175 69-67 0-129-26-174-69l174-175z"/>
<glyph unicode="&#108;" d="M259 512c-141 0-256-115-256-256 0-141 115-256 256-256 142 0 256 115 256 256 0 141-114 256-256 256z m-167-256c0 94 73 168 167 168 36 0 70-8 97-27l-238-238c-19 27-26 61-26 97z m167-168c-35 0-69 8-97 27l239 238c18-27 26-61 26-97 0-94-73-168-168-168z"/>
<glyph unicode="&#109;" d="M495 290l-142 0-62-62-100-46 36 108-210 0c-9 0-17-7-17-17l0-179c0-9 8-17 17-17l478 0c9 0 17 8 17 17l0 179c0 10-8 17-17 17z m0-187c0-5-4-9-9-9l-460 0c-5 0-9 4-9 9l0 162c0 4 4 8 9 8l122 0c5 0 9-4 9-8 0-5-4-9-9-9l-114 0 0-145 444 0 0 145-61 0c-4 0-8 4-8 9 0 4 4 8 8 8l69 0c5 0 9-4 9-8z m-99 332l39-39-17-17-40 39z m-30-29l39-39-119-120-39 39z m-95-168l-33 32-18-56z"/>
<glyph unicode="&#110;" d="M256 512c-141 0-256-115-256-256 0-141 115-256 256-256 141 0 256 115 256 256 0 141-115 256-256 256z m-95-282l69-69-113-44z m83-60l-74 74 127 127 74-74z m139 128z m0 12l-73 73 30 31 74-74z"/>
<glyph unicode="&#111;" d="M292 249l-55-24c-1 0-3 0-4 0-2 0-4 1-6 2-2 3-3 6-2 10l24 55c1 1 1 2 2 3l133 133-383 0 0-427 401 0 0 357-107-107c-1-1-2-1-3-2z m76 17c0 4 4 8 9 8 4 0 8-4 8-8l0-239c0-5-4-9-8-9l-350 0c-5 0-9 4-9 9l0 375c0 5 4 9 9 9l273 0c5 0 8-4 8-9 0-4-3-8-8-8l-265 0 0-359 333 0z m-104 18l-14-34 34 14 160 160-20 20z m212 182c-3 6-9 11-15 11-3 0-5-1-7-4l-18-17 20-20 17 18c4 3 5 7 3 12z"/>
<glyph unicode="&#112;" d="M507 257c-1 2-15 40-66 79-7 5-18 4-24-4-5-7-4-18 4-24 29-22 44-43 50-55-22-27-103-121-211-121-14 0-28 1-41 3-9 1-18-5-19-14-1-10 5-18 14-20 14-2 30-3 46-3 144 0 241 138 245 144 3 4 4 10 2 15z m-427-86c6 0 11 3 14 7 6 8 4 19-4 24-23 17-26 21-37 36-3 4-6 8-10 14 25 31 111 128 217 128 10 0 18-2 30-4 9-2 18 3 21 13 2 9-4 18-13 20-10 2-23 5-38 5-144 0-248-146-253-153-4-6-4-14 1-20 8-10 13-17 17-23 13-18 19-25 46-44 3-2 6-3 9-3z m182 14c39 0 72 32 72 72 0 7-2 15-4 21l-88-90c6-2 13-3 20-3z m-72 72c0-7 1-14 3-21l88 90c-6 2-12 3-19 3-40 0-72-33-72-72z m296 229c-7 6-17 6-24 0l-410-419c-6-6-6-17 1-24 3-3 7-5 12-5 4 0 8 2 12 6l409 418c7 6 7 17 0 24z"/>
<glyph unicode="&#113;" d="M189 136l0 18 9 0c5 0 8 3 8 8l0 34c0 5-3 9-8 9l-102 0c-5 0-9-4-9-9l0-34c0-5 4-8 9-8l8 0 0-18c-63-4-102-52-102-127 0-5 3-9 8-9l273 0c5 0 9 4 9 9 0 75-39 123-103 127z m291 239c23 53 36 105 15 125-1 0-1 1-1 1 0 0-1 1-1 1 0 0-1 0-1 0l0 0c-3 2-7 2-10-1l-62-62 0 52c0 3-2 5-4 6-2 2-5 2-7 0-22-12-51-33-78-60-59-59-90-125-70-157l-35-35c-3-3-3-9 0-12 2-2 4-3 6-3 2 0 4 1 6 3l35 35c33-21 108-7 164 56l-108 0 18 17 107 0c5 0 8 4 8 9 0 5-3 8-8 8l-90 0 17 17z"/>
<glyph unicode="&#114;" d="M440 512l-203-203c-20 10-46 15-75 15-89 0-162-72-162-162 0-89 73-162 162-162 90 0 162 73 162 162 0 22-5 45-15 67l61 61 40 0 0 39 3 4 39 0 0 39 4 3 39 0 0 40 17 21 0 76z m-329-435c-24 0-43 19-43 42 0 24 19 43 43 43 23 0 43-19 43-43 0-23-20-42-43-42z"/>
<glyph unicode="&#115;" d="M461 329l37 38-51 51 28 28c16 15 16 39 0 55-7 7-17 11-27 11-10 0-20-4-27-11l-234-234c-18 9-39 14-59 14-71 0-128-57-128-128 0-70 57-128 128-128 71 0 128 58 128 128 0 21-5 41-14 59l108 108 43-42 37 37-42 43 22 22z m-333-227c-28 0-51 23-51 51 0 28 23 51 51 51 28 0 51-23 51-51 0-28-23-51-51-51z"/>
<glyph unicode="&#116;" d="M444 350l-113 0c-32 0-58-26-58-60 0-9 8-17 17-17 10 0 17 8 17 17 0 15 10 26 24 26l113 0c19 0 34-16 34-34l0-52c0-18-15-34-34-34l-113 0c-24 0-24 2-24 9 0 9-7 17-17 17-9 0-17-8-17-17 0-43 39-43 58-43l113 0c37 0 68 31 68 68l0 52c0 37-31 68-68 68z m-222-128c-10 0-17-8-17-17 0-7 0-9-24-9l-113 0c-19 0-34 16-34 34l0 52c0 18 15 34 34 34l113 0c14 0 24-11 24-26 0-9 7-17 17-17 9 0 17 8 17 17 0 34-26 60-58 60l-113 0c-37 0-68-31-68-68l0-52c0-37 31-68 68-68l113 0c19 0 58 0 58 43 0 9-8 17-17 17z m-103 25c0-9 8-17 18-17l238 0c10 0 18 8 18 17 0 10-8 18-18 18l-238 0c-10 0-18-8-18-18z"/>
<glyph unicode="&#117;" d="M479 436l-56 56c-13 13-30 20-48 20-18 0-35-7-48-20l-101-100c-22-22-18-57 9-84 7-7 17-7 24 0 7 7 7 17 0 24-4 4-21 23-9 36l101 100c6 6 15 10 24 10 9 0 18-4 24-10l56-56c6-6 10-15 10-24 0-9-4-18-10-24l-101-100c-3-4-8-5-13-5-7 1-15 6-22 13-7 7-18 7-24 0-7-6-7-17 0-24 12-13 27-20 41-22 3-1 5-1 8-1 13 0 25 5 34 15l101 100c13 13 20 30 20 48 0 18-7 36-20 48z m-227-206c-7-7-7-18 0-25 4-3 21-22 8-35l-99-100c-6-7-15-10-24-10-9 0-18 3-24 10l-57 56c-6 7-10 15-10 24 0 9 4 18 10 24l101 100c12 13 32-5 35-9 7-6 18-6 24 0 7 7 7 18 0 24-27 28-61 31-83 9l-101-99c-13-13-20-30-20-49 0-18 7-35 20-48l57-57c13-12 30-19 48-19 0 0 0 0 0 0 18 0 35 7 48 20l100 100c22 22 18 56-9 84-7 6-17 6-24 0z m-94-59c3-3 8-5 12-5 5 0 9 2 12 5l171 171c7 7 7 17 0 24-7 7-18 7-24 0l-171-171c-7-6-7-17 0-24z"/>
<glyph unicode="&#118;" d="M257 144l-54-53c-13-13-28-21-43-22-14-1-26 4-35 13l-17 17c-19 19-19 51 0 70l94 94c14 14 29 21 43 20 15-1 30-11 42-27 6-7 16-9 24-3 7 5 9 16 3 24-18 24-42 38-67 40-17 1-42-3-69-30l-94-94c-32-32-32-86 0-118l17-17c15-15 35-23 56-23 1 0 3 0 5 0 23 1 46 12 65 32l54 53c7 7 7 18 0 24-7 7-18 7-24 0z m192 254l-17 17c-30 31-85 41-118 9l-61-62c-7-7-7-18 0-24 6-7 17-7 24 0l61 61c18 18 51 10 70-8l17-17c9-9 14-20 14-31 0-11-5-21-14-30l-102-103c-11-10-24-11-30-10-12 1-24 7-29 16-6 8-16 10-24 5-8-5-10-16-5-24 12-17 32-29 54-31 3 0 5 0 8 0 19 0 37 7 50 20l102 102c16 16 24 35 24 55 0 20-8 40-24 55z"/>
<glyph unicode="&#119;" d="M124 406c4-3 8-5 13-5 4 0 8 2 12 5 6 7 6 18 0 24l-43 43c-7 7-18 7-24 0-7-7-7-18 0-24z m72 12c10 0 17 8 17 17l0 51c0 10-7 17-17 17-9 0-17-7-17-17l0-51c0-9 8-17 17-17z m-136-77l51 0c9 0 17 8 17 17 0 10-8 17-17 17l-51 0c-10 0-17-7-17-17 0-9 7-17 17-17z m167-218l-68-68c-28-28-60-28-87 0l-17 17c-28 27-28 59 0 87l68 68c7 7 7 17 0 24-7 7-17 7-24 0l-68-68c-41-41-41-94 0-135l17-17c20-21 44-31 67-31 24 0 47 10 68 31l68 68c7 7 7 17 0 24-7 7-17 7-24 0z m191 252l-94 0c-9 0-17-7-17-17 0-9 8-17 17-17l94 0c30 0 60-33 60-67l0-44c0-31-28-59-60-59l-94 0c-9 0-17-8-17-17 0-10 8-17 17-17l94 0c51 0 94 43 94 93l0 44c0 48-40 101-94 101z"/>
<glyph unicode="&#120;" d="M413 375l-82 0c-9 0-17-7-17-17 0-9 8-17 17-17l82 0c36 0 65-30 65-68l0-17c0-38-29-68-64-68l-81 0c-10 0-17-8-17-17 0-10 7-17 17-17l81 0c54 0 98 46 98 102l0 17c0 57-44 102-99 102z m-217-204c0 9-7 17-17 17l-81 0c-35 0-64 30-64 68l0 17c0 38 29 68 65 68l82 0c9 0 17 8 17 17 0 10-8 17-17 17l-82 0c-55 0-99-45-99-102l0-17c0-56 44-102 98-102l81 0c10 0 17 7 17 17z m60 324c-9 0-17-8-17-17l0-68c0-10 8-17 17-17 9 0 17 7 17 17l0 68c0 9-8 17-17 17z m68-94c5 0 9 2 12 5l34 34c7 7 7 18 0 24-6 7-17 7-24 0l-34-34c-6-6-6-17 0-24 4-3 8-5 12-5z m-150 64c-6 6-17 6-24 0-7-7-7-18 0-24l34-35c3-3 8-5 12-5 5 0 9 2 12 5 7 7 7 17 0 24z m82-328c-9 0-17-8-17-18l0-68c0-9 8-17 17-17 9 0 17 8 17 17l0 68c0 10-8 18-17 18z m72-23c-7 7-18 7-24 0-7-6-7-17 0-24l34-34c3-3 7-5 12-5 4 0 9 2 12 5 7 7 7 18 0 24z m-144 0l-34-34c-7-6-7-17 0-24 3-3 8-5 12-5 5 0 9 2 12 5l34 34c7 7 7 18 0 24-6 7-17 7-24 0z"/>
<glyph unicode="&#121;" d="M383 283l0 110c0 62-61 119-128 119-67 0-128-57-128-119l0-110c-26-30-43-69-43-112 0-94 77-171 171-171 94 0 171 77 171 171 0 43-16 82-43 112z m-119-127l0-62c0-5-4-9-9-9-5 0-8 4-8 9l0 62c-6 3-9 8-9 15 0 9 8 17 17 17 9 0 17-8 17-17 0-7-3-12-8-15z m102 144c-30 26-69 41-111 41-42 0-81-15-111-41l0 93c0 52 54 102 111 102 57 0 111-50 111-102z"/>
<glyph unicode="&#122;" d="M384 307l0 68c0 66-51 137-128 137-77 0-128-71-128-137l0-68-51 0 0-307 358 0 0 307z m-119-134l0-58c0-5-4-9-9-9-5 0-9 4-9 9l0 58c-5 3-8 8-8 15 0 9 8 17 17 17 9 0 17-8 17-17 0-7-3-12-8-15z m102 134l-222 0 0 68c0 58 45 120 111 120 66 0 111-62 111-120z"/>
<glyph unicode="&#65;" d="M304 188l8 0c-3 35-32 64-67 67l0-8c0-4-4-8-9-8-5 0-8 4-8 8l0 8c-36-3-64-32-68-67l8 0c5 0 8-4 8-9 0-5-3-8-8-8l-8 0c4-36 32-64 68-68l0 8c0 5 3 8 8 8 5 0 9-3 9-8l0-8c35 4 64 32 67 68l-8 0c-4 0-8 3-8 8 0 5 4 9 8 9z m-68-26c-9 0-17 8-17 17 0 10 8 17 17 17 10 0 17-7 17-17 0-9-7-17-17-17z m111 147l0 92c0 60-46 102-111 102-60 0-108-43-111-102l0-92c-36-32-59-78-59-130 0-94 76-170 170-170 94 0 171 76 171 170 0 52-23 98-60 130z m-111 177c56 0 94-34 94-85l0-79c-27 17-59 28-94 28-35 0-67-11-94-28l0 79c3 42 36 85 94 85z m111-315l-17 0c-4-45-40-81-85-85l0-18c0-4-4-8-9-8-5 0-8 4-8 8l0 18c-45 4-81 40-85 85l-18 0c-4 0-8 3-8 8 0 5 4 9 8 9l18 0c4 45 40 81 85 85l0 17c0 5 3 9 8 9 5 0 9-4 9-9l0-17c45-4 81-40 85-85l17 0c5 0 9-4 9-9 0-5-4-8-9-8z"/>
<glyph unicode="&#66;" d="M256 512c-141 0-256-115-256-256 0-141 115-256 256-256 141 0 256 115 256 256 0 141-115 256-256 256z m77-418l-145 0 34 162c-25 12-43 38-43 68 0 42 35 77 77 77 42 0 77-35 77-76 0-30-18-57-43-69z"/>
<glyph unicode="&#67;" d="M452 495l-392 0c-19 0-34-15-34-34l0-393c0-19 15-34 34-34l392 0c19 0 34 15 34 34l0 393c0 19-15 34-34 34z m-128-384l-145 0 34 162c-25 12-42 38-42 68 0 42 35 77 76 77 42 0 77-35 77-76 0-30-17-57-42-69z"/>
<glyph unicode="&#68;" d="M384 283l0 118c0 62-53 111-120 111-64 0-111-47-111-111l17 0c0 54 40 94 94 94 57 0 102-41 102-94l0-101c-29 26-68 41-110 41-95 0-171-76-171-170 0-94 76-171 171-171 94 0 170 77 170 171 0 43-16 82-42 112z m-120-127l0-62c0-5-4-9-8-9-5 0-9 4-9 9l0 62c-5 3-9 8-9 15 0 9 8 17 18 17 9 0 17-8 17-17 0-7-4-12-9-15z"/>
<glyph unicode="&#69;" d="M370 307l0 68c0 66-51 137-128 137-77 0-128-71-128-137l17 0c0 58 45 120 111 120 66 0 111-62 111-120l0-68-290 0 0-307 358 0 0 307z m-120-134l0-58c0-5-3-9-8-9-5 0-9 4-9 9l0 58c-5 3-8 8-8 15 0 9 8 17 17 17 9 0 17-8 17-17 0-7-3-12-9-15z"/>
<glyph unicode="&#70;" d="M507 29l-185 185c26 32 42 72 42 116 0 100-82 182-182 182-100 0-182-82-182-182 0-100 82-182 182-182 44 0 84 16 116 42l185-185c3-3 8-5 12-5 4 0 9 2 12 5 7 7 7 17 0 24z m-325 153c-82 0-148 67-148 148 0 82 66 148 148 148 81 0 148-66 148-148 0-81-67-148-148-148z"/>
<glyph unicode="&#71;" d="M446 506l-16-17c0 0 0 0 0 0-11 11-25 17-39 17-15 0-29-6-39-17l-120-119c-5-5-5-13 0-18 3-3 6-4 9-4 4 0 7 1 10 4l119 119c11 12 30 12 42 0 0 0 0 0 0 0l-85-85-3-2 60-60 3 3 119 119z m-281-401l-60 60 207 207 60-60z m-117 26c-19-19-35-83-42-113l59 59c3 3 9 3 12 0 3-3 3-9 0-12l-59-59c30 7 94 23 113 42 25 25 25 58 0 83-25 25-58 25-83 0z"/>
<glyph unicode="&#72;" d="M81 113c-4 3-9 3-12 0-4-4-4-9 0-12l11-11-45-45c-4-4-4-9 0-13 1-1 3-2 6-2 2 0 4 1 6 2l45 46 11-11c1-2 4-3 6-3 2 0 4 1 6 3 3 3 3 8 0 12z m339 365l-12-12c0 0 0 0 0 0-11 10-24 16-39 16-14 0-28-6-39-16l-119-120c-5-5-5-13 0-18 2-2 5-4 9-4 3 0 6 2 9 4l119 120c12 11 30 11 42 0 0 0 0 0 0 0l-89-90-3-2 60-60 3 3 119 119z m-281-401l-60 59 207 208 60-60z"/>
<glyph unicode="&#73;" d="M90 149l12-13-51-51 11-11-38-38c-3-3-3-9 0-12 2-2 4-3 6-3 2 0 4 1 6 3l38 38 11-11 52 51 12-12 208 207-60 59z m341 342l-17-17c0 0 0 0 0 0-10 11-24 17-39 17-14 0-28-6-38-17l-120-119c-5-5-5-13 0-18 3-3 6-4 9-4 3 0 7 1 9 4l120 119c11 12 30 12 41 0 0 0 0 0 0 0l-84-85-3-2 60-60 2 2 120 120z"/>
<glyph unicode="&#74;" d="M288 334l-201-201 48-48 201 202-24 23z m-240-288l72 30-42 42z m368 416l-15-15c0 1-1 2-1 2-4 4-8 7-12 9-8 5-18 8-27 8-15 0-29-6-39-17l-120-119c-5-5-5-13 0-18 3-3 6-4 9-4 4 0 7 1 9 4l120 119c8 8 19 10 28 8 5-2 10-4 14-8 0-1 1-1 2-1l-84-84 48-47 116 116z"/>
<glyph unicode="&#75;" d="M484 484c-16 17-43 17-59 0l-20-19 60-60 19 20c17 16 17 43 0 59z m-469-469l111 56-55 55z m126 66l-60 60 312 312 60-60z"/>
<glyph unicode="&#76;" d="M23 23l108 27-81 81z m460 409l-51 51c-5 4-10 6-17 6-10 0-22-5-31-15l-3-2 91-91 2 3c14 14 22 35 9 48z m-336-375l-90 90 287 287 90-90z m299 299l-90 90 13 14 91-91z"/>
<glyph unicode="&#77;" d="M482 428l-54 54c-11 11-31 11-42 0l-30-29 97-97 29 30c12 12 12 30 0 42z m-339-298l0-51 19-13 245 244-43 42z m-13 12l222 222-42 43-244-245 13-20z m192 277l97-97 22 22-97 97z m-197-345l0 51-51 0c-3 0-5 2-7 4l-10 15-15-51 51-51 51 15-15 10c-2 2-4 4-4 7z m-104-53l53 16-37 37z"/>
<glyph unicode="&#78;" d="M510 356l-154 153c-3 4-9 4-12 0l-43-42c-3-4-3-9 0-12l20-20-94-94-90 0c-3 0-5-1-6-2l-35-34c-3-4-3-9 0-12l92-92-185-186c-4-4-4-9 0-13 1-1 3-2 6-2 2 0 4 1 6 2l186 186 92-92c1-1 3-2 6-2 2 0 4 1 6 2l34 34c1 2 2 4 2 7l0 90 94 94 20-20c3-3 8-3 12 0l43 43c3 3 3 9 0 12z"/>
<glyph unicode="&#79;" d="M410 512c-57 0-103-46-103-102 0-22 7-43 19-60l-321-321c-7-7-7-17 0-24 3-3 8-5 12-5 4 0 9 2 12 5l321 321c17-12 38-19 60-19 56 0 102 46 102 103 0 56-46 102-102 102z"/>
<glyph unicode="&#80;" d="M374 341l-96 0 103 158c2 2 2 6 0 9-1 2-4 4-7 4l-180 0c-4 0-7-3-8-7l-60-256c0-2 0-5 2-7 2-2 4-3 7-3l74 0-65-228c-2-4 0-8 4-10 1-1 3-1 4-1 3 0 5 1 7 4l222 324c1 3 2 6 0 9-1 3-4 4-7 4z"/>
<glyph unicode="&#81;" d="M434 303c-1 2-4 4-7 4l-162 0 41 195c1 4-1 8-5 9-4 2-8 1-10-3l-216-307c-1-2-2-6 0-9 1-3 4-4 7-4l162 0-41-178c-1-3 1-8 5-9 1-1 2-1 4-1 2 0 5 1 6 3l216 291c2 2 2 6 0 9z"/>
<glyph unicode="&#82;" d="M255 341c-42 0-76-34-76-76 0-43 34-77 76-77 43 0 77 34 77 77 0 42-34 76-77 76z m255-80c-5 6-115 149-255 149-139 0-249-143-254-149-2-3-2-8 1-11 4-5 114-131 253-131 139 0 250 126 254 131 3 3 3 8 1 11z m-255-90c-51 0-93 42-93 94 0 51 42 93 93 93 52 0 94-42 94-93 0-52-42-94-94-94z"/>
<glyph unicode="&#83;" d="M257 299c-43 0-77-35-77-77 0-42 34-77 77-77 42 0 76 35 76 77 0 42-34 77-76 77z m0-128c-29 0-52 23-52 51 0 5 4 8 9 8 5 0 8-3 8-8 0-19 16-34 35-34 18 0 34 15 34 34 0 19-16 34-34 34-5 0-9 4-9 9 0 4 4 8 9 8 28 0 51-23 51-51 0-28-23-51-51-51z m254 56c-1 2-29 36-74 70-42 32-107 70-180 70-73 0-139-38-181-70-45-34-72-68-74-70-2-3-2-7 0-10 5-6 115-149 255-149 139 0 249 143 254 149 2 3 2 7 0 10z m-254-99c-52 0-94 42-94 94 0 52 42 94 94 94 51 0 93-42 93-94 0-52-42-94-93-94z"/>
<glyph unicode="&#84;" d="M501 132l-210 122 210 126c2 2 3 4 2 6-6 11-17 19-29 23-13 4-26 2-37-4l-240-138-72 35c32 14 54 45 54 82 0 49-40 90-89 90-50 0-90-41-90-90 0-47 36-85 81-89l83-41-79-37c-47-2-85-41-85-89 0-49 40-90 90-90 49 0 89 41 89 90 0 36-21 67-51 81l73 34 236-136c7-4 15-6 23-6 4 0 9 1 14 2 12 4 23 12 29 23 0 1 1 2 0 3 0 1-1 2-2 3z m-475 252c0 35 28 64 64 64 35 0 64-29 64-64 0-35-29-64-64-64-36 0-64 29-64 64z m128-256c0-35-29-64-64-64-36 0-64 29-64 64 0 35 28 64 64 64 35 0 64-29 64-64z"/>
<glyph unicode="&#85;" d="M423 194c-28 0-53-13-69-33-6 25-15 49-27 71 12 22 21 46 27 72 16-21 41-34 69-34 49 0 89 40 89 89 0 49-40 89-89 89-49 0-89-40-89-89 0-37-9-74-25-106-45 61-114 98-190 98-23 0-95-12-116-27-2-2-3-6-3-9 1-3 3-6 6-6l274-77-274-77c-3 0-5-3-6-6 0-3 1-7 3-9 21-15 92-26 116-26 76 0 145 36 190 98 16-33 25-69 25-107 0-49 40-89 89-89 49 0 89 40 89 89 0 49-40 89-89 89z m0 228c35 0 63-28 63-63 0-35-28-63-63-63-35 0-63 28-63 63 0 35 28 63 63 63z m0-380c-35 0-63 28-63 63 0 35 28 64 63 64 35 0 63-29 63-64 0-35-28-63-63-63z"/>
<glyph unicode="&#86;" d="M375 354c0-26 36-50 68-55 3 0 6 0 9 0l0 25c0 104-88 188-196 188-109 0-197-84-197-188l0-25c3 0 5 0 7 0 30 4 53 27 53 55l0 21 17 0 0-21c0-39-35-72-77-72l0-137c0-32 21-55 51-59l0-34c0-29 23-52 52-52l17 0 0 95c0 4 4 8 8 8 5 0 9-4 9-8l0-95 51 0 0 94c0 5 4 8 9 8 4 0 8-3 8-8l0-94 51 0 0 95c0 4 4 8 9 8 5 0 8-4 8-8l0-95 17 0c29 0 52 23 52 52l0 34c30 4 51 27 51 59l0 137c-38 0-94 30-94 72l0 21 17 0z m-205-209c-37 0-68 31-68 68 0 38 31 69 68 69 38 0 68-31 68-69 0-37-30-68-68-68z m111-17l-51 0 0 9c0 9 12 25 26 25 13 0 25-16 25-25z m128 85c0-37-31-68-68-68-38 0-68 31-68 68 0 38 30 69 68 69 37 0 68-31 68-69z m-119 0c0-28 23-51 51-51 28 0 51 23 51 51 0 29-23 52-51 52-28 0-51-23-51-52z m-120 52c-28 0-51-23-51-52 0-28 23-51 51-51 28 0 51 23 51 51 0 29-23 52-51 52z"/>
<glyph unicode="&#87;" d="M460 290c-60 1-93 34-93 94 0 5 4 9 9 9 5 0 8-4 8-9 0-3 1-6 1-9 2-42 25-65 67-68 2 0 4 0 5 0-18 95-99 162-201 162-102 0-182-67-200-162 1 0 3 0 4 0 43 3 65 26 68 68 0 3 0 6 0 9 0 5 4 9 9 9 5 0 9-4 9-9 0-60-33-93-93-94-1-8-1-17-1-25l0-52c0-64 44-114 102-119l0-94 68 0 0 102c0 5 4 9 9 9 5 0 8-4 8-9l0-102 35 0 0 102c0 5 3 9 8 9 5 0 9-4 9-9l0-102 68 0 0 94c58 5 102 55 102 119l0 52c0 8 0 17-1 25z m-297-145c-38 0-69 31-69 68 0 38 31 69 69 69 37 0 68-31 68-69 0-37-31-68-68-68z m105-7c0 0 0 0 0 0l-22 0c-3 0-6 2-7 4-2 3-2 6-1 8l11 22c3 6 13 6 15 0l11-20c1-2 1-4 1-5 0-5-4-9-8-9z m82 7c-37 0-68 31-68 68 0 38 31 69 68 69 38 0 69-31 69-69 0-37-31-68-69-68z m0 120c-28 0-51-23-51-52 0-28 23-51 51-51 29 0 52 23 52 51 0 29-23 52-52 52z m-187 0c-29 0-52-23-52-52 0-28 23-51 52-51 28 0 51 23 51 51 0 29-23 52-51 52z"/>
<glyph unicode="&#88;" d="M495 341l-92 0c6 32 31 52 67 52 9 0 17 7 17 17 0 9-8 17-17 17-38 0-68-16-86-43-17 27-48 43-85 43-10 0-17-8-17-17 0-10 7-17 17-17 35 0 60-20 66-52l-348 0c-9 0-17-7-17-17l0-187c0-10 8-18 17-18l348 0c-6-31-31-51-66-51-10 0-17-7-17-17 0-9 7-17 17-17 37 0 68 16 85 43 18-27 48-43 86-43 9 0 17 8 17 17 0 10-8 17-17 17-36 0-61 20-67 51l92 0c10 0 17 8 17 18l0 187c0 10-7 17-17 17z m-128-187l-333 0 0 153 333 0z m111 0l-77 0 0 153 77 0z"/>
<glyph unicode="&#89;" d="M495 350l-478 0c-9 0-17-8-17-17l0-205c0-9 8-17 17-17l478 0c9 0 17 8 17 17l0 205c0 9-8 17-17 17z m-17-205l-444 0 0 171 444 0z m-393 17c10 0 17 8 17 17l0 105c0 9-7 17-17 17-9 0-17-8-17-17l0-105c0-9 8-17 17-17z"/>
<glyph unicode="&#90;" d="M374 34l-35 0c-34 0-68 19-68 60l0 68 34 0c10 0 17 8 17 17 0 10-7 17-17 17l-34 0 0 221c0 1 0 1 0 1 0 0 0 0 0 0 0 41 34 60 68 60l35 0c9 0 17 8 17 17 0 9-8 17-17 17l-35 0c-36 0-67-15-85-40-18 25-48 40-85 40l-34 0c-10 0-17-8-17-17 0-9 7-17 17-17l34 0c34 0 68-19 68-60 0 0 0 0 0 0 0 0 0 0 0-1l0-221-34 0c-10 0-17-7-17-17 0-9 7-17 17-17l34 0 0-68c0-41-34-60-68-60l-34 0c-10 0-17-8-17-17 0-9 7-17 17-17l34 0c37 0 67 15 85 40 18-25 48-40 85-40l35 0c9 0 17 8 17 17 0 9-8 17-17 17z m-325 316l-25 0c-10 0-17-8-17-17l0-26c0-9 7-17 17-17 9 0 17 8 17 17l0 9 8 0c10 0 17 7 17 17 0 9-7 17-17 17z m52-34l25 0c10 0 17 7 17 17 0 9-7 17-17 17l-25 0c-10 0-18-8-18-17 0-10 8-17 18-17z m76 0l26 0c9 0 17 7 17 17 0 9-8 17-17 17l-26 0c-9 0-17-8-17-17 0-10 8-17 17-17z m-128-188l-8 0 0 9c0 9-8 17-17 17-10 0-17-8-17-17l0-26c0-9 7-17 17-17l25 0c10 0 17 8 17 17 0 9-7 17-17 17z m94-17c0 9-7 17-17 17l-25 0c-10 0-18-8-18-17 0-9 8-17 18-17l25 0c10 0 17 8 17 17z m34-17l26 0c9 0 17 8 17 17 0 9-8 17-17 17l-26 0c-9 0-17-8-17-17 0-9 8-17 17-17z m308 168c-10 0-18-7-18-17l0-49c0-9 8-17 18-17 9 0 17 8 17 17l0 49c0 10-8 17-17 17z m-461-83c9 0 17 8 17 17l0 49c0 10-8 17-17 17-10 0-17-7-17-17l0-49c0-9 7-17 17-17z m461 171l-26 0c-10 0-17-8-17-17 0-10 7-17 17-17l8 0 0-9c0-9 8-17 18-17 9 0 17 8 17 17l0 26c0 9-8 17-17 17z m-77 0l-26 0c-9 0-17-8-17-17 0-10 8-17 17-17l26 0c9 0 17 7 17 17 0 9-8 17-17 17z m-77 0l-26 0c-9 0-17-8-17-17 0-10 8-17 17-17l26 0c9 0 17 7 17 17 0 9-8 17-17 17z m154-196c-10 0-18-8-18-17l0-9-8 0c-10 0-17-8-17-17 0-9 7-17 17-17l26 0c9 0 17 8 17 17l0 26c0 9-8 17-17 17z m-77-26l-26 0c-9 0-17-8-17-17 0-9 8-17 17-17l26 0c9 0 17 8 17 17 0 9-8 17-17 17z m-77 0l-26 0c-9 0-17-8-17-17 0-9 8-17 17-17l26 0c9 0 17 8 17 17 0 9-8 17-17 17z"/>
<glyph unicode="&#48;" d="M374 34l-34 0c-38 0-68 30-68 68 0 1 0 1 0 1 0 0 0 0 0 0l0 68 34 0c9 0 17 7 17 17 0 9-8 17-17 17l-34 0 0 205c0 38 30 68 68 68l34 0c9 0 17 8 17 17 0 9-8 17-17 17l-34 0c-36 0-67-18-85-45-19 27-50 45-86 45l-34 0c-9 0-17-8-17-17 0-9 8-17 17-17l34 0c39 0 69-30 69-68l0-205-35 0c-9 0-17-8-17-17 0-10 8-17 17-17l35 0 0-68c0 0 0 0 0 0 0 0 0 0 0-1 0-38-30-68-69-68l-34 0c-9 0-17-8-17-17 0-9 8-17 17-17l34 0c36 0 67 18 86 45 18-27 49-45 85-45l34 0c9 0 17 8 17 17 0 9-8 17-17 17z"/>
<glyph unicode="&#49;" d="M507 29l-71 71c10 16 16 34 16 54 0 51-42 93-94 93-51 0-93-42-93-93 0-52 42-94 93-94 20 0 38 6 54 16l71-71c3-3 8-5 12-5 4 0 9 2 12 5 7 7 7 17 0 24z m-103 108l-29 0 0-29c0-10-7-17-17-17-9 0-17 7-17 17l0 29-23 0c-9 0-17 7-17 17 0 9 8 17 17 17l23 0 0 23c0 9 8 17 17 17 10 0 17-8 17-17l0-23 29 0c10 0 17-8 17-17 0-10-7-17-17-17z m-29 290c0 9-7 17-17 17-9 0-17-8-17-17l0-43c0-9 8-17 17-17 10 0 17 8 17 17z m-17-77c-9 0-17-8-17-17l0-43c0-9 8-17 17-17 10 0 17 8 17 17l0 43c0 9-7 17-17 17z m-341 25c9 0 17 8 17 18l0 34c0 9-8 17-17 17-9 0-17-8-17-17l0-34c0-10 8-18 17-18z m0-85c9 0 17 8 17 17l0 34c0 10-8 17-17 17-9 0-17-7-17-17l0-34c0-9 8-17 17-17z m0-85c9 0 17 7 17 17l0 34c0 9-8 17-17 17-9 0-17-8-17-17l0-34c0-10 8-17 17-17z m17 307l-17 0c-9 0-17-8-17-17l0-17c0-10 8-17 17-17 9 0 17 7 17 17 10 0 17 8 17 17 0 9-7 17-17 17z m85 0l-34 0c-9 0-17-8-17-17 0-9 8-17 17-17l34 0c10 0 18 8 18 17 0 9-8 17-18 17z m86 0l-34 0c-10 0-17-8-17-17 0-9 7-17 17-17l34 0c9 0 17 8 17 17 0 9-8 17-17 17z m-171-341c0 9-8 17-17 17-9 0-17-8-17-17l0-17c0-10 8-17 17-17l17 0c10 0 17 7 17 17 0 9-7 17-17 17z m85 0l-34 0c-9 0-17-8-17-17 0-10 8-17 17-17l34 0c10 0 18 7 18 17 0 9-8 17-18 17z m86 0l-34 0c-10 0-17-8-17-17 0-10 7-17 17-17l34 0c9 0 17 7 17 17 0 9-8 17-17 17z m102 324c0 9-7 17-17 17l-34 0c-9 0-17-8-17-17 0-9 8-17 17-17l34 0c10 0 17 8 17 17z m34-17c0-10 8-17 17-17 10 0 17 7 17 17l0 17c0 9-7 17-17 17l-17 0c-9 0-17-8-17-17 0-9 8-17 17-17z"/>
<glyph unicode="&#50;" d="M507 29l-190 190c26 31 41 71 41 114 0 99-80 179-179 179-99 0-179-80-179-179 0-99 80-179 179-179 43 0 83 15 114 41l190-190c3-3 8-5 12-5 4 0 9 2 12 5 7 7 7 17 0 24z m-251 287l-60 0 0-60c0-9-7-17-17-17-9 0-17 8-17 17l0 60-60 0c-9 0-17 7-17 17 0 9 8 17 17 17l60 0 0 60c0 9 8 17 17 17 10 0 17-8 17-17l0-60 60 0c9 0 17-8 17-17 0-10-8-17-17-17z"/>
<glyph unicode="&#51;" d="M507 29l-190 190c26 31 41 71 41 114 0 99-80 179-179 179-99 0-179-80-179-179 0-99 80-179 179-179 43 0 83 15 114 41l190-190c3-3 8-5 12-5 4 0 9 2 12 5 7 7 7 17 0 24z m-251 287l-154 0c-9 0-17 7-17 17 0 9 8 17 17 17l154 0c9 0 17-8 17-17 0-10-8-17-17-17z"/>
<glyph unicode="&#52;" d="M459 117l-139 139 71 71c2 2 3 5 2 8 0 3-3 5-5 6l-307 111c-4 1-7 0-9-2-3-2-4-6-2-9l102-307c1-3 3-5 6-6 3 0 6 0 8 2l79 72 139-140c2-1 4-2 6-2 3 0 5 1 6 2l43 43c3 3 3 9 0 12z"/>
<glyph unicode="&#53;" d="M512 200c0 0-1 0-1 1 0 0 0 1 0 2-1 0-1 1-1 1 0 1-1 1-1 2 0 0-1 1-1 1 0 1-1 1-1 2-1 0-1 0-1 0l-65 57c-7 6-18 6-24-1-6-8-6-18 2-25l31-27-117 0 0 121 36-36c3-3 8-5 12-5 4 0 9 2 12 5 7 7 7 18 0 24l-65 66c-3 3-8 5-12 5-5 0-9-2-12-5l0 0-65-66c-7-6-7-17 0-24 6-6 17-6 24 0l36 36 0-121-117 0 31 27c7 7 8 17 2 25-7 7-17 7-25 1l-65-57c0 0 0 0 0 0-1-1-1-1-2-2 0 0 0-1 0-1-1 0-1-1-2-2 0 0 0-1 0-1 0-1-1-2-1-2 0-1 0-1 0-1 0-1-1-3-1-4 0-1 1-2 1-3 0-1 0-1 0-1 0-1 1-2 1-3 0 0 0 0 0-1 1 0 1-1 2-2 0 0 0 0 0-1 1 0 1-1 2-1 0 0 0 0 0-1l65-57c4-2 8-4 12-4 4 0 9 2 13 6 6 7 5 18-2 24l-31 27 117 0 0-121-36 36c-7 7-18 7-24 0-7-6-7-17 0-24l65-65c0 0 0 0 0 0 0-1 1-2 2-2 1 0 1 0 1-1 1 0 1 0 2-1 1 0 1 0 1 0 1 0 2-1 2-1 1 0 3 0 4 0 1 0 2 0 3 0 1 0 1 1 2 1 1 0 1 0 1 0 1 1 2 1 2 1 1 1 1 1 1 1 1 0 2 1 3 2 0 0 0 0 0 0l65 65c7 7 7 18 0 24-7 7-18 7-24 0l-36-36 0 121 117 0-31-27c-8-6-8-17-2-24 3-4 8-6 13-6 4 0 8 2 11 4l65 57c0 1 0 1 1 1 0 0 1 1 1 1 0 1 1 1 1 1 0 1 1 2 1 2 0 1 0 1 1 1 0 1 0 2 0 3 0 0 1 0 1 1 0 1 0 2 0 3 0 1 0 3 0 4z m-384 88l16 80 80 16c3 1 6 4 6 7 1 4-1 7-4 9l-214 111c-3 2-7 1-9-2-3-2-4-6-2-9l111-214c1-3 4-4 7-4 1 0 1 0 2 0 3 0 6 3 7 6z"/>
<glyph unicode="&#54;" d="M235 387c0 4-2 7-5 9l-213 111c-4 1-8 1-10-2-3-2-3-6-2-10l111-213c2-3 5-5 8-5 0 0 1 0 1 0 4 1 6 4 7 7l16 80 80 16c3 1 6 3 7 7z m102-41c-94 0-171-77-171-171 0-94 77-171 171-171 94 0 171 77 171 171 0 94-77 171-171 171z m85-180l-76 0 0-76c0-5-4-9-9-9-5 0-8 4-8 9l0 76-77 0c-5 0-9 4-9 9 0 5 4 8 9 8l77 0 0 77c0 5 3 9 8 9 5 0 9-4 9-9l0-77 76 0c5 0 9-3 9-8 0-5-4-9-9-9z"/>
<glyph unicode="&#55;" d="M507 307l-495 204c-3 2-7 1-9-2-3-2-4-6-2-9l204-495c1-3 5-5 8-5 0 0 0 0 0 0 4 0 7 3 8 6l63 222 222 63c3 1 6 4 6 8 0 3-2 7-5 8z"/>
<glyph unicode="&#56;" d="M512 263c0 1-1 1-1 2 0 0 0 1 0 2-1 0-1 1-1 1 0 1-1 1-1 2-1 0-1 1-2 2l-60 60c-6 7-17 7-24 0-7-7-7-18 0-24l31-31-179 0 0 172 33-32c3-4 8-5 12-5 4 0 9 1 12 5 7 6 7 17 0 24l-62 62c0 0 0 0 0 0-1 0-1 1-2 2-1 0-1 0-2 0 0 1-1 1-1 1-1 0-1 1-2 1 0 0-1 0-1 0-1 0-3 1-4 1 0 0 0 0 0 0 0 0 0 0 0 0-1 0-2-1-3-1-1 0-1 0-2 0 0 0-1-1-1-1-1 0-1 0-2-1 0 0-1 0-1 0-1-1-2-2-3-2 0 0 0 0 0 0l-62-62c-6-7-6-18 0-24 7-7 18-7 25 0l32 32 0-172-174 0 30 31c7 6 7 17 0 24-6 7-17 7-24 0l-59-60c-1-1-2-2-3-2 0-1 0-1 0-2-1 0-1-1-1-1 0-1-1-2-1-2 0-1 0-1 0-2-1-2-1-4 0-6 0-1 0-1 0-2 0 0 1-1 1-1 0-1 0-2 1-2 0-1 0-1 0-1 1-1 2-2 3-3l59-60c4-3 8-5 12-5 5 0 9 2 12 5 7 7 7 18 0 24l-30 31 174 0 0-185-32 33c-7 7-18 7-25 0-6-7-6-18 0-24l62-62c1-1 2-2 3-2 0 0 0 0 1-1 0 0 1 0 2-1 0 0 0 0 1 0 0 0 1-1 2-1 1 0 2 0 3 0 1 0 2 0 4 0 0 0 1 1 2 1 0 0 0 0 1 0 1 1 1 1 2 1 0 1 0 1 1 1 1 1 2 1 2 2l62 62c7 6 7 17 0 24-7 7-17 7-24 0l-33-33 0 185 179 0-31-31c-7-6-7-17 0-24 3-3 8-5 12-5 5 0 9 2 12 5l60 60c1 1 1 2 2 3 0 0 1 1 1 1 0 0 0 1 1 2 0 0 0 1 0 1 0 1 1 1 1 2 0 2 0 4 0 6z"/>
<glyph unicode="&#57;" d="M507 29l-98 98 55 24c3 1 5 4 5 8 0 3-2 6-5 8l-183 75c-3 1-7 1-10-2-2-2-3-6-1-9l75-183c1-3 4-5 8-5 0 0 0 0 0 0 3 0 6 2 8 5l23 55 99-98c3-3 8-5 12-5 4 0 9 2 12 5 7 7 7 18 0 24z m-132 389c0 10-7 17-17 17-9 0-17-7-17-17l0-25c0-10 8-18 17-18 10 0 17 8 17 18z m-17-60c-9 0-17-7-17-17l0-25c0-10 8-17 17-17 10 0 17 7 17 17l0 25c0 10-7 17-17 17z m-341 17c9 0 17 8 17 18l0 25c0 10-8 17-17 17-9 0-17-7-17-17l0-25c0-10 8-18 17-18z m0-76c9 0 17 7 17 17l0 25c0 10-8 17-17 17-9 0-17-7-17-17l0-25c0-10 8-17 17-17z m0-86c9 0 17 8 17 17l0 26c0 9-8 17-17 17-9 0-17-8-17-17l0-26c0-9 8-17 17-17z m26 299l-26 0c-9 0-17-8-17-17l0-26c0-9 8-17 17-17 9 0 17 8 17 17l0 9 9 0c9 0 17 8 17 17 0 9-8 17-17 17z m51-34l25 0c10 0 18 8 18 17 0 9-8 17-18 17l-25 0c-10 0-17-8-17-17 0-9 7-17 17-17z m102 0c10 0 17 8 17 17 0 9-7 17-17 17l-25 0c-10 0-17-8-17-17 0-9 7-17 17-17z m-153-307l-9 0 0 8c0 10-8 17-17 17-9 0-17-7-17-17l0-25c0-10 8-17 17-17l26 0c9 0 17 7 17 17 0 9-8 17-17 17z m85 0l-34 0c-10 0-17-8-17-17 0-10 7-17 17-17l34 0c9 0 17 7 17 17 0 9-8 17-17 17z m85 0l-34 0c-9 0-17-8-17-17 0-10 8-17 17-17l34 0c10 0 17 7 17 17 0 9-7 17-17 17z m77 324c0 9-8 17-17 17l-26 0c-9 0-17-8-17-17 0-9 8-17 17-17l26 0c9 0 17 8 17 17z m43-17l8 0 0-9c0-9 8-17 17-17 10 0 17 8 17 17l0 26c0 9-7 17-17 17l-25 0c-10 0-17-8-17-17 0-9 7-17 17-17z"/>
<glyph unicode="&#33;" d="M363 266c0 3-2 6-5 8l-344 182c-3 2-7 2-10-1-3-3-3-7-2-10l183-355c2-3 5-5 8-5 0 0 0 0 0 0 3 0 6 2 8 5l52 116 105 52c3 2 5 5 5 8z m139 27l-345 183c-6 3-14 2-20-3-5-5-6-13-3-20l21-43c5-8 15-12 23-8 7 4 11 12 9 19l269-143-78-39c-3-1-6-4-8-8l-39-86-27 54c-4 9-14 12-23 8-8-4-11-14-7-23l43-86c3-6 9-9 15-9 0 0 0 0 0 0 7 0 13 4 16 10l51 113 102 51c6 2 10 8 10 15 0 6-4 12-9 15z"/>
<glyph unicode="&#34;" d="M422 236l0 127c0 15-14 30-29 30-16 0-30-15-30-31l0-85-9 0 0 128c0 16-14 30-30 30-15 0-30-14-30-30l0-102-8 0 0 128c0 15-15 30-30 30-16 0-30-14-30-30l0-128-8 0 0 102c0 16-15 30-30 30-16 0-30-14-30-30l0-187-9 0 0 89-30 0c-15 0-29-14-29-30l0-85c0-41 72-132 149-132l68 0c58 0 115 55 115 112l0 64 5 0z"/>
<glyph unicode="&#35;" d="M395 393c-15 0-30-15-30-30l0-97-8 0 0 156c0 16-15 30-30 30-15 0-30-14-30-30l0-128-8 0 0 171c0 15-15 30-30 30-16 0-30-15-30-30l0-171-9 0 0 128c0 16-14 30-30 30-15 0-29-14-29-30l0-225-59 86c-7 10-13 15-20 16 0 0-1 0-1 0-7 0-13-5-16-8-8-8-7-20 1-37 1-2 49-106 85-163 17-26 50-57 88-57l71 0c57 0 115 58 115 115l0 214c0 15-14 30-30 30z"/>
<glyph unicode="&#36;" d="M418 295l0 25c0 15-14 30-30 30-15 0-30-15-30-30l0-34c0-2-2-4-4-4-2 0-4 2-4 4l0 60c0 16-11 28-26 28-16 0-34-17-34-32l0-22c0-2-2-4-4-4-3 0-4 2-4 4l0 43c0 15-15 30-30 30-16 0-30-15-30-30l0-43c0-2-2-4-4-4-3 0-5 2-5 4l0 22c0 14-14 33-30 33-15 0-29-14-29-29l0-76c0-2-2-4-5-4-2 0-4 2-4 4l0 37-21 0c-23 0-39-20-39-38l0-26c0-49 37-149 150-149l76 0c55 0 107 56 107 115l0 86 0 0c0 0 0 0 0 0z"/>
<glyph unicode="&#37;" d="M455 306c-2 7-6 13-12 17-5 3-10 4-15 4-10 0-19-5-24-13l-59-93c-1-1-3-2-5-1-2 0-3 2-2 4l34 190c2 8 1 15-3 22-4 6-11 10-18 12-15 3-30-7-33-22l-37-162c0-3-2-4-4-4-2 1-4 2-4 5l0 204c0 16-14 30-30 30-15 0-30-14-30-30l0-204c0-3-1-5-4-5-2 0-4 2-4 4l-33 170c-3 15-18 25-33 22-7-2-13-6-18-13-4-6-5-13-3-21l34-241c1-1 0-3-2-4-1-1-3-1-5 0l-64 57c-5 4-12 7-19 7-8 0-15-3-21-9-5-6-7-13-7-20 1-8 4-15 9-20l114-151c17-18 41-28 67-28l75 0c63 0 92 40 92 128 0 20 5 39 15 57l46 86c4 7 5 14 3 22z"/>
<glyph unicode="&#38;" d="M377 324l-21 0 0-40-9 0 0 45c0 9-11 21-21 21l-38 0 0-47-9 0 0 51c0 10-13 13-21 13l-39 0 0-64-8 0 0 154c0 15-15 29-30 29-15 0-30-14-30-29l0-258-58 58c-8 7-21 7-28-1-8-7-6-19 0-27 1-2 77-150 110-195l191 0 41 125c6 19 9 39 9 59l0 76c0 15-23 30-39 30z"/>
<glyph unicode="&#39;" d="M369 183l-92 31 0 125c0 20-18 37-38 37-21 0-38-17-38-37l0-216c-38 55-59 60-81 60-8 0-15-4-18-11-7-11-3-29 4-39l88-131 176 0 23 122c6 23 0 51-24 59z m6 327l-273 0c-45 0-85-40-85-85l0-120c0-43 38-77 85-77l35 0c9 0 17 8 17 17 0 10-8 17-17 17l-35 0c-25 0-51 16-51 43l0 120c0 26 25 51 51 51l273 0c27 0 52-25 52-51l0-120c0-27-26-43-52-43l-34 0c-9 0-17-7-17-17 0-9 8-17 17-17l34 0c48 0 86 34 86 77l0 120c0 45-40 85-86 85z"/>
<glyph unicode="&#40;" d="M384 184l-98 32 0 125c0 20-18 38-38 38-20 0-39-18-39-38l1-216c-36 54-51 60-74 60-9 0-16-4-19-11-7-12-3-29 4-39l90-131 177 0 20 122c6 23 0 51-24 58z m-225 38c6 6 6 17 0 24-25 25-39 59-39 94 0 36 14 70 39 95 25 25 58 39 94 39 36 0 69-14 95-39 25-25 39-59 39-95 0-35-14-69-39-94-7-7-7-18 0-24 3-4 7-5 12-5 4 0 8 1 12 5 31 31 49 74 49 118 0 45-18 87-49 119-32 32-74 49-119 49-45 0-87-17-118-49-32-32-50-74-50-119 0-44 18-87 50-118 6-7 17-7 24 0z"/>
<glyph unicode="&#41;" d="M388 185l-89 31 0 125c0 20-19 38-39 38-21 0-38-18-38-38l0-224c-39 57-59 68-81 68-8 0-15-4-18-10-7-12-3-29 4-40l87-129c1-1 2-2 4-2l170 0c2 0 4 2 4 4l22 118c6 23-2 51-26 59z m34 178l-68 0c-7 0-13-6-13-13 0-7 6-13 13-13l68 0c7 0 13 6 13 13 0 7-6 13-13 13z m-87 42c3 0 6 1 9 3l43 43c5 5 5 13 0 18-5 5-13 5-18 0l-43-43c-5-5-5-13 0-18 2-2 6-3 9-3z m-75 17c7 0 13 6 13 13l0 60c0 7-6 13-13 13-7 0-13-6-13-13l0-60c0-7 6-13 13-13z m-85-14c3-2 6-3 9-3 3 0 7 1 9 3 5 5 5 13 0 18l-43 43c-5 5-13 5-18 0-5-5-5-13 0-18z m4-58c0 7-6 13-13 13l-68 0c-7 0-13-6-13-13 0-7 6-13 13-13l68 0c7 0 13 6 13 13z"/>
<glyph unicode="&#42;" d="M466 199l-121 43 0 108c0 19-16 30-30 30l-17 0c-15 0-30-11-30-30l0-181-18 30c-5 6-14 10-21 10l-22 0c-8 0-17-5-21-12-5-8-5-18-1-25l79-155c5-8 16-13 25-13l137 0c9 0 16 6 21 16l34 153c0 0 0 0 0 1 0 12-6 22-15 25z m-364 270l-43 0c-10 0-17-7-17-17 0-9 7-17 17-17l43 0c9 0 17 8 17 17 0 10-8 17-17 17z m0-85l-43 0c-10 0-17-8-17-17 0-9 7-17 17-17l43 0c9 0 17 8 17 17 0 9-8 17-17 17z m-1-85l-42 0c-10 0-17-8-17-17 0-10 7-17 17-17l42 0c10 0 17 7 17 17 0 9-7 17-17 17z m60 136l43 0c9 0 17 8 17 17 0 10-8 17-17 17l-43 0c-9 0-17-7-17-17 0-9 8-17 17-17z m0-85l43 0c9 0 17 8 17 17 0 9-8 17-17 17l-43 0c-9 0-17-8-17-17 0-9 8-17 17-17z m60-68c0 9-8 17-17 17l-43 0c-9 0-17-8-17-17 0-10 8-17 17-17l43 0c9 0 17 7 17 17z m51 153l43 0c9 0 17 8 17 17 0 10-8 17-17 17l-43 0c-9 0-17-7-17-17 0-9 8-17 17-17z"/>
<glyph unicode="&#43;" d="M406 512l-60 0 0-457 54-53c2-1 4-2 6-2 1 0 2 0 3 1 3 1 5 4 5 8l0 494c0 5-3 9-8 9z m-213-443l71 68 65-65 0 440-136 0z m-86 434l0-494c0-4 2-7 5-8 4-2 7-1 10 1l54 51 0 459-60 0c-5 0-9-4-9-9z"/>
<glyph unicode="&#44;" d="M510 359l-151 150c-3 4-9 4-12 1l-344-342c-3-2-4-6-2-9 1-3 4-5 8-5l145 0 0-145c0-4 2-7 5-8 1-1 2-1 3-1 2 0 5 1 6 3l342 344c3 3 3 9 0 12z"/>
<glyph unicode="&#45;" d="M357 512l-188 0c-46 0-85-39-85-85l0-418c0-4 2-7 5-8 2-1 3-1 4-1 2 0 4 1 6 3l97 101 113-102c2-2 6-3 9-1 3 1 5 4 5 8l0 409c0 2 0 5 1 7 0 1 0 2 0 2 1 2 1 3 1 4 1 1 1 2 1 2 1 2 2 3 2 5 1 0 1 0 1 0 4 7 11 12 21 14 1 0 1 0 2 0l0 0c2 0 3 0 5 0 5 0 9-4 9-8 0-5-4-9-9-9-15 0-17-10-17-17l0-43 94 0c5 0 9 4 9 9l0 43c0 46-40 85-86 85z"/>
<glyph unicode="&#46;" d="M503 495l-247 0 0 8c0 5-4 9-9 9l-170 0c-5 0-9-4-9-9l0-8-59 0c-5 0-9-4-9-9l0-477c0-5 4-9 9-9l494 0c5 0 9 4 9 9l0 477c0 5-4 9-9 9z m-418 0l154 0 0-253-71 71c-1 2-4 3-6 3-2 0-4-1-6-3l-71-71z m265-410l-273 0c-5 0-9 4-9 9 0 5 4 8 9 8l273 0c5 0 8-3 8-8 0-5-3-9-8-9z m85 69l-358 0c-5 0-9 3-9 8 0 5 4 9 9 9l358 0c5 0 9-4 9-9 0-5-4-8-9-8z m0 68l-128 0c-5 0-8 4-8 8 0 5 3 9 8 9l128 0c5 0 9-4 9-9 0-4-4-8-9-8z m0 68l-128 0c-5 0-8 4-8 9 0 4 3 8 8 8l128 0c5 0 9-4 9-8 0-5-4-9-9-9z m0 68l-128 0c-5 0-8 4-8 9 0 5 3 8 8 8l128 0c5 0 9-3 9-8 0-5-4-9-9-9z"/>
<glyph unicode="&#47;" d="M509 197l-315 313c-2 1-4 2-6 2l-179 0c-5 0-9-4-9-9l0-179c0-2 1-4 2-6l313-315c1-2 4-3 6-3 0 0 0 0 0 0 2 0 4 1 6 2l183 183c1 2 2 4 2 6 0 2-1 5-3 6z m-393 156c-24 0-43 19-43 43 0 24 19 43 43 43 24 0 43-19 43-43 0-24-19-43-43-43z"/>
<glyph unicode="&#58;" d="M509 197l-315 313c-2 1-4 2-6 2l-179 0c-5 0-9-4-9-9l0-179c0-2 1-4 2-6l313-315c1-2 4-3 6-3 1 0 1 0 2 0 3 1 5 3 6 6l41 136 136 41c3 1 5 3 6 6 0 3 0 6-3 8z m-393 156c-24 0-43 19-43 43 0 24 19 43 43 43 24 0 43-19 43-43 0-24-19-43-43-43z"/>
<glyph unicode="&#59;" d="M401 222c-61 0-111-50-111-111 0-61 50-111 111-111 61 0 111 50 111 111 0 61-50 111-111 111z m51-120l-42 0 0-42c0-5-4-9-9-9-5 0-8 4-8 9l0 42-43 0c-5 0-9 4-9 9 0 5 4 8 9 8l43 0 0 43c0 5 3 9 8 9 5 0 9-4 9-9l0-43 42 0c5 0 9-3 9-8 0-5-4-9-9-9z m-25 273l0 128c0 3-1 5-3 6-1 2-4 3-6 3l0 0-146 0c-2 0-4-1-6-3l-263-263c-4-3-4-9 0-12l134-135c2-1 4-2 6-2 2 0 4 1 6 2l275 270c2 2 3 4 3 6z m-96 21c-18 0-32 14-32 32 0 18 14 32 32 32 18 0 33-14 33-32 0-18-15-32-33-32z"/>
<glyph unicode="&#60;" d="M401 222c-61 0-111-50-111-111 0-61 50-111 111-111 61 0 111 50 111 111 0 61-50 111-111 111z m51-120l-102 0c-5 0-9 4-9 9 0 5 4 8 9 8l102 0c5 0 9-3 9-8 0-5-4-9-9-9z m-37 272l0 129c0 3-1 5-2 6-2 2-4 3-6 3l0 0-135 0c-2 0-4-1-6-3l-263-263c-4-3-4-9 0-12l134-135c2-1 4-2 6-2 0 0 0 0 0 0 2 0 5 1 6 2l264 269c1 2 2 4 2 6z m-84 22c-18 0-32 14-32 32 0 18 14 32 32 32 18 0 33-14 33-32 0-18-15-32-33-32z"/>
<glyph unicode="&#61;" d="M172 467c-1 1-3 2-6 2l-153 0c-5 0-9-3-9-8l0-145c0-3 1-5 3-6l301-299c2-2 4-2 6-2 2 0 4 0 6 2l151 151c1 1 2 3 2 6 0 2-1 4-2 6z m-62-127c-18 0-33 14-33 32 0 18 15 32 33 32 17 0 32-14 32-32 0-18-15-32-32-32z m395-112l-281 281c-2 2-4 3-6 3l-145 0c-5 0-9-4-9-9 0-4 4-8 9-8l141 0 273-273-11-11c-3-4-3-9 0-12 2-2 4-3 6-3 2 0 5 1 6 3l17 17c4 3 4 9 0 12z"/>
<glyph unicode="&#62;" d="M170 463c-1 1-3 2-6 2l-153 0c-5 0-9-4-9-9l0-145c0-2 1-4 3-6l301-298c2-2 4-3 6-3 1 0 1 0 2 0 2 1 5 3 6 6l42 104 104 41c2 1 4 4 5 7 0 2 0 5-2 7z m-62-128c-18 0-33 15-33 33 0 18 15 32 33 32 17 0 32-14 32-32 0-18-15-33-32-33z m399-109l-281 279c-2 2-4 3-6 3l-154 0c-5 0-8-4-8-9 0-4 3-8 8-8l150 0 269-268-19-6c-4-2-7-6-5-11 1-3 4-6 8-6 1 0 2 0 3 1l32 10c3 1 5 4 6 7 0 2-1 6-3 8z"/>
<glyph unicode="&#63;" d="M487 427c5 0 9 3 9 8l0 68c0 5-4 9-9 9l-68 0c-5 0-8-4-8-9l0-25-325 0 0 25c0 5-4 9-8 9l-69 0c-4 0-8-4-8-9l0-68c0-5 4-8 8-8l26 0 0-325-26 0c-4 0-8-3-8-8l0-68c0-5 4-9 8-9l69 0c4 0 8 4 8 9l0 25 325 0 0-25c0-5 3-9 8-9l68 0c5 0 9 4 9 9l0 68c0 5-4 8-9 8l-25 0 0 325z m-42-325l-26 0c-5 0-8-3-8-8l0-26-325 0 0 26c0 5-4 8-8 8l-26 0 0 325 26 0c4 0 8 3 8 8l0 26 325 0 0-26c0-5 3-8 8-8l26 0z"/>
<glyph unicode="&#64;" d="M444 384l0-239c0-5 4-8 8-8 5 0 9 3 9 8l0 239c0 5-4 9-9 9-4 0-8-4-8-9z m-77 94l-239 0c-5 0-9-4-9-9 0-4 4-8 9-8l239 0c5 0 8 4 8 8 0 5-3 9-8 9z m-316-333l0 230c0 5-4 9-8 9-5 0-9-4-9-9l0-230c0-5 4-8 9-8 4 0 8 3 8 8z m316-77l-239 0c-5 0-9-4-9-8 0-5 4-9 9-9l239 0c5 0 8 4 8 9 0 4-3 8-8 8z m85 359c24 0 43 19 43 42 0 24-19 43-43 43-23 0-42-19-42-43 0-23 19-42 42-42z m-409 85c-24 0-43-19-43-43 0-23 19-42 43-42 23 0 42 19 42 42 0 24-19 43-42 43z m409-410c-23 0-42-19-42-42 0-24 19-43 42-43 24 0 43 19 43 43 0 23-19 42-43 42z m-409 0c-24 0-43-19-43-42 0-24 19-43 43-43 23 0 42 19 42 43 0 23-19 42-42 42z"/>
<glyph unicode="&#91;" d="M375 503c0 5-3 9-8 9l-358 0c-5 0-9-4-9-9l0-358c0-5 4-8 9-8l128 0 0 230c0 5 3 8 8 8l230 0z m-221-145l341 0 0-341-341 0z"/>
<glyph unicode="&#93;" d="M486 393l-128 0 0-231c0-5-3-8-8-8l-231 0 0-128c0-5 4-9 9-9l358 0c5 0 9 4 9 9l0 358c0 5-4 9-9 9z m-486 119l341 0 0-341-341 0z"/>
<glyph unicode="&#94;" d="M42 205l426 0c5 0 9 4 9 8l0 222c0 5-4 9-9 9l-162 0 0 8c0 5-4 9-8 9l-43 0 0 42c0 5-4 9-8 9-5 0-9-4-9-9l0-42-43 0c-4 0-8-4-8-9l0-8-145 0c-5 0-9-4-9-9l0-222c0-4 4-8 9-8z m162 239l85 0 0-17-85 0z m273-256l-444 0c-16 0-25-9-25-26 0-16 9-25 25-25l97 0-63-125c-2-4-1-9 3-11 2-1 3-1 4-1 3 0 6 2 8 5l67 132 89 0 0-128c0-5 4-9 9-9 4 0 8 4 8 9l0 128 89 0 67-132c2-3 5-5 8-5 1 0 2 0 4 1 4 2 5 7 3 11l-63 125 114 0c16 0 26 9 26 25 0 17-10 26-26 26z"/>
<glyph unicode="&#95;" d="M444 508c-3 0-5-1-7-3l-221-284 52-44c0 0 0 0 1 0l241 257c1 1 2 4 2 6 0 40-5 68-68 68z m-199-356l-50 42c-8 3-17 4-26 4-29 0-57-14-73-35-8-11-12-24-17-38-10-33-20-63-70-61-3 0-7-2-8-5-2-3-1-7 2-9 29-30 66-46 106-46 62 0 124 39 140 90 7 20 5 40-4 58z"/>
<glyph unicode="&#96;" d="M427 307l-111 0c-6 0-9 3-10 5-2 2-2 12 1 18 7 17 9 28 9 45l3 75c0 34-28 62-63 62-34 0-60-26-60-60l0-77c0-17 2-28 9-45 3-6 3-16 1-18-1-2-4-5-10-5l-111 0c-22 0-42-28-42-51l0-60c0-4 3-8 8-8l410 0c5 0 8 4 8 8l0 60c0 23-20 51-42 51z m-171 132c-6 0-10 5-10 11 0 6 4 10 10 10 6 0 11-4 11-10 0-6-5-11-11-11z m188-268l-376 0c-4 0-8-4-8-9l0-153c0-5 4-9 8-9l60 0c3 0 6 2 8 5l26 53 0-49c0-5 4-9 9-9l111 0 0 60c0 4 3 8 8 8 5 0 9-4 9-8l0-60 34 0 0 94c0 5 4 8 8 8 5 0 9-3 9-8l0-94 34 0 0 119c0 5 4 9 9 9 4 0 8-4 8-9l0-119 43 0c4 0 8 4 8 9l0 153c0 5-4 9-8 9z"/>
<glyph unicode="&#123;" d="M419 244c2 3 1 7-1 9l-188 197c-2 1-4 2-6 2-2 0-5-1-6-2l-3-3 0 22c0 24-19 43-42 43l-17 0c-24 0-43-19-43-43l0-124-83-83c-10-10-15-22-15-36 0-13 5-26 15-36l103-102c9-10 22-15 35-15 14 0 27 5 36 15l151 151 57 0c3 0 6 2 7 5z m-221 186l-68-68 0 107c0 14 12 26 26 26l17 0c14 0 25-12 25-26z m247-247c-3 6-12 6-15 0-6-9-52-92-52-123 0-35 25-60 59-60 35 0 60 25 60 60 0 31-47 114-52 123z"/>
<glyph unicode="&#124;" d="M361 354l145 128c7 6 8 17 2 24-7 7-17 8-24 2l-145-128c-2-2-3-3-4-5l-216 0 0 43c0 5-3 9-8 9l-68 0c-5 0-9-4-9-9l0-43-25 0c-5 0-9-3-9-8l0-68c0-5 4-9 9-9l25 0 0-230c0-5 4-9 9-9l230 0 0-42c0-5 4-9 9-9l68 0c5 0 8 4 8 9l0 42 43 0c5 0 9 4 9 9l0 68c0 5-4 9-9 9l-43 0 0 215c1 1 2 1 3 2z m-242-64l130 0-130-129z m154-153l-129 0 129 129z"/>
<glyph unicode="&#125;" d="M205 401l102 0c5 0 9 4 9 9l0 42c0 29-24 60-60 60-36 0-60-31-60-60l0-42c0-5 4-9 9-9z m145-17l-188 0c-5 0-8-4-8-9 0-4 3-8 8-8l34 0 1-154c-1-24 12-45 33-56l0-46c0-5 4-9 9-9l34 0c5 0 9 4 9 9l0 46c21 13 34 33 34 56l0 154 34 0c5 0 8 4 8 8 0 5-3 9-8 9z m-68-171c0-12-16-17-26-17-10 0-26 5-26 17l0 120c0 5 4 8 9 8l34 0c5 0 9-3 9-8z m-30-135c-5-8-23-34-23-48 0-17 13-30 30-30 17 0 30 13 30 30 0 14-18 40-23 48-3 5-11 5-14 0z"/>
<glyph unicode="&#126;" d="M375 341l-238 0c-5 0-9-3-9-8 0-5 4-9 9-9l34 0 0-51 51 0c5 0 8-4 8-8 0-5-3-9-8-9l-51 0 0-17 51 0c5 0 8-4 8-9 0-4-3-8-8-8l-51 0 0-17 51 0c5 0 8-4 8-9 0-4-3-8-8-8l-51 0 0-51c0-44 19-78 51-92l0-36c0-5 4-9 8-9l52 0c4 0 8 4 8 9l0 36c32 14 51 48 51 92l0 187 34 0c5 0 9 4 9 9 0 5-4 8-9 8z m-196 17l154 0c5 0 8 4 8 9l0 51c0 52-38 94-85 94-47 0-85-42-85-94l0-51c0-5 3-9 8-9z"/>
<glyph unicode="&#92;" d="M205 346l102 0c5 0 9 3 9 8l0 43c0 34-25 60-60 60-35 0-60-26-60-60l0-43c0-5 4-8 9-8z m145-17l-188 0c-5 0-8-4-8-9 0-5 3-9 8-9l34 0 0-153c0-21 11-37 34-48l0-46c0-5 4-9 9-9l34 0c5 0 9 4 9 9l0 46c23 11 34 27 34 48l0 153 34 0c5 0 8 4 8 9 0 5-3 9-8 9z"/>
<glyph unicode="&#57344;" d="M65 116c-2-4-1-8 2-11l17-17c1-2 3-3 6-3 1 0 3 1 5 2l130 98-70 70z m91 163l89-89c1-2 2-3 2-4l61-6-158 157z m324 77l-154 153c-3 4-9 4-12 0l-156-156 166-165 156 156c3 3 3 9 0 12z m-432-284c-4-8-18-36-18-46 0-15 11-26 25-26 15 0 26 11 26 26 0 10-14 38-18 46-3 6-12 6-15 0z"/>
<glyph unicode="&#57345;" d="M495 230c9 0 17 8 17 17 0 10-8 18-17 18l-128 0 0 68 128 0c9 0 17 7 17 17 0 9-8 17-17 17l-128 0 0 128c0 9-8 17-17 17-10 0-17-8-17-17l0-128-68 0 0 128c0 9-8 17-18 17-9 0-17-8-17-17l0-128-68 0 0 128c0 9-8 17-17 17-9 0-17-8-17-17l0-128-111 0c-9 0-17-8-17-17 0-10 8-17 17-17l111 0 0-68-111 0c-9 0-17-8-17-18 0-9 8-17 17-17l111 0 0-68-111 0c-9 0-17-8-17-17 0-9 8-17 17-17l111 0 0-111c0-9 8-17 17-17 9 0 17 8 17 17l0 111 68 0 0-111c0-9 8-17 17-17 10 0 18 8 18 17l0 111 68 0 0-111c0-9 7-17 17-17 9 0 17 8 17 17l0 111 128 0c9 0 17 8 17 17 0 9-8 17-17 17l-128 0 0 68z m-265-68l-68 0 0 68 68 0z m0 103l-68 0 0 68 68 0z m103-103l-68 0 0 68 68 0z m0 103l-68 0 0 68 68 0z"/>
<glyph unicode="&#57346;" d="M52 137l0 170-43 0c-5 0-9-4-9-8l0-231c0-4 4-8 9-8l349 0c5 0 9 4 9 8l0 60-307 0c-5 0-8 4-8 9z m66 81l0 175-41 0c-5 0-8-4-8-9l0-239 358 0c4 0 8 4 8 9l0 56-308 0c-5 0-9 4-9 8z m17 260l377 0 0-251-377 0z"/>
<glyph unicode="&#57347;" d="M487 318l-54 55 40 89c1 3 1 7-2 9-3 3-6 3-10 2l-88-40-56 55c-2 3-6 3-10 2-3-2-5-6-4-10l16-78-96-40c-4-1-6-5-5-9 0-4 3-7 7-7l84-13-7-6c0 0 0 0 0 0l-276-277c-6-6-6-17 0-24 4-3 8-5 12-5 5 0 9 2 12 5l277 276c0 0 0 0 0 0l6 7 13-84c0-4 3-7 7-7 0 0 1 0 1 0 3 0 6 2 8 5l40 88 79-8c0 0 1 0 1 0 0 0 0 0 0 0 5 0 9 4 9 8 0 3-2 6-4 7z"/>
<glyph unicode="&#57348;" d="M278 302l-273-273c-6-7-6-18 0-24 4-4 8-5 12-5 5 0 9 1 13 5l273 273c6 6 6 17 0 24-7 6-18 6-25 0z m217 74l-69 0c-9 0-17-8-17-17 0-10 8-17 17-17l69 0c9 0 17 7 17 17 0 9-8 17-17 17z m-86 17c5 0 9 2 12 5l51 51c7 7 7 18 0 24-6 7-17 7-24 0l-51-51c-7-7-7-17 0-24 3-3 8-5 12-5z m-51 119c-9 0-17-7-17-17l0-68c0-9 8-17 17-17 9 0 17 8 17 17l0 68c0 10-8 17-17 17z m-90-39c-7 7-18 7-24 0-7-6-7-17 0-24l51-51c3-3 7-5 12-5 4 0 9 2 12 5 7 7 7 17 0 24z m-47-131l69 0c9 0 17 7 17 17 0 9-8 17-17 17l-69 0c-9 0-17-8-17-17 0-10 8-17 17-17z m137-43c-9 0-17-8-17-17l0-68c0-10 8-17 17-17 9 0 17 7 17 17l0 68c0 9-8 17-17 17z m63 21c-6 6-17 6-24 0-7-7-7-18 0-24l51-52c4-3 8-5 12-5 5 0 9 2 12 5 7 7 7 18 0 24z"/>
<glyph unicode="&#57349;" d="M270 147c-16-17-38-26-62-26-23 0-45 9-62 26-34 34-34 90 0 124l109 110-72 71-117-117c-78-78-82-204-9-277 34-34 83-54 134-54 51 0 100 20 134 54l126 126-71 72z m37 286c4 3 4 9 0 12l-59 60c-1 2-3 3-6 3-2 0-4-1-6-3l-41-41 72-71z m197-184l-59 60c-4 3-9 3-12 0l-41-41 72-72 40 41c4 4 4 9 0 12z"/>
<glyph unicode="&#57350;" d="M134 83l-43 42c-3 4-8 4-12 0l-76-76c-3-3-4-6-2-10 1-3 4-5 8-5l85 0c2 0 4 1 6 3l34 34c3 3 3 8 0 12z m-42 119c1-8-5-16-18-30-3-3-3-8 0-12l95-94c1-2 3-3 6-3l0 0c2 0 4 1 6 3 12 12 21 18 28 18 8 0 17-6 32-22 2-1 4-2 6-2 3 0 5 1 6 2l36 34c1 2 2 4 2 6 0 3-1 5-2 6l-171 171c-3 3-9 3-12 0l-35-34c-2-2-3-4-3-6 0-2 1-4 3-6 14-15 21-24 21-31z m208-86c1-2 3-2 6-2 0 0 0 0 0 0 3 0 5 1 6 3l198 252c3 3 3 8-1 11l-129 129c-3 4-8 4-11 1l-240-211c-1-1-3-4-3-6 0-2 1-5 3-6z m203-99l-366 0c-5 0-9-4-9-8 0-5 4-9 9-9l366 0c5 0 9 4 9 9 0 4-4 8-9 8z"/>
<glyph unicode="&#57351;" d="M433 407c-51 51-120 80-190 80-65 0-126-25-172-71-48-48-73-114-71-186 2-69 31-137 79-185 10-9 23-15 36-15 14 0 26 6 36 15 20 21 20 52 0 72-13 13-14 25-8 31 3 3 4 3 5 3 2 0 7-2 17-12l94-94c24-24 56-37 91-37 35 0 67 13 91 37 98 98 94 260-8 362z m-195-71c-14-13-35-13-49 0-13 13-13 35 0 48 14 13 35 13 49 0 13-13 13-35 0-48z m85 25c14 14 35 14 49 0 13-13 13-35 0-48-14-13-35-13-49 0-13 13-13 35 0 48z m55-267c-17-17-44-17-61 0-16 17-16 44 0 60 17 17 44 17 61 0 16-16 16-43 0-60z m47 119c-10-10-26-10-36 0-10 10-10 26 0 36 10 10 26 10 36 0 10-10 10-26 0-36z"/>
<glyph unicode="&#57352;" d="M425 282l-78 128-184 0-76-128c-1-3-1-6 0-8l126-269c2-3 5-5 8-5l26 0 0 247c0 1 0 1 0 1-20 4-34 21-34 42 0 24 19 43 42 43 24 0 43-19 43-43 0-21-15-38-34-42 0 0 0 0 0-1l0-247 25 0c4 0 7 2 8 5l128 269c1 2 1 5 0 8z m-262 145l183 0 36 73c2 2 2 5 0 8-2 2-4 4-7 4l-248 0c-3 0-6-2-7-4-2-3-2-6 0-9z"/>
<glyph unicode="&#57353;" d="M299 377l0 33 8 0c4 0 7 2 8 6l26 85c1 3 0 5-1 8-2 2-5 3-7 3l-154 0c-2 0-5-1-7-3-1-3-2-5-1-8l26-85c1-4 4-6 8-6l8 0 0-33c-49-18-85-65-85-121 0-67 108-244 112-252 2-2 4-4 7-4l0 205c0 0 1 1 1 1-15 4-26 17-26 33 0 19 15 34 34 34 19 0 34-15 34-34 0-16-11-29-26-33 0 0 1-1 1-1l0-205c3 0 5 2 7 4 4 8 112 193 112 252 0 56-36 103-85 121z m-17 4c-9 2-17 3-26 3-9 0-17-1-26-3l0 29 52 0z"/>
<glyph unicode="&#57354;" d="M507 502c0 0 0 1 0 1 0 1-1 1-2 2 0 0 0 0 0 0 0 0 0 0 0 0 0 0 0 0 0 0-1 1-1 2-2 2 0 0-1 0-1 0-1 1-2 1-3 1 0 0 0 0 0 0-1 0-1 0-2 0 0-1-98-21-189-61-3-1-5-4-5-8 0-23-14-46-26-62l0 45c0 3-1 6-4 8-2 1-5 1-8 0-35-17-58-32-79-53-59-59-78-113-84-148-7-39 0-74 18-97l-113-113c-4-3-4-9 0-12 1-2 4-3 6-3 2 0 4 1 6 3l113 113c15-12 34-18 57-18 44 0 95 25 147 70l-56 57c-3 3-3 8 0 12 3 3 9 3 12 0l57-57c4 3 7 7 11 11 2 2 5 4 7 6l-53 53c-3 4-3 9 0 12 3 4 9 4 12 0l52-52c89 105 128 276 130 283 0 1 0 1 0 2 0 0 0 0 0 0 0 1 0 2-1 3z"/>
<glyph unicode="&#57355;" d="M256 350c-9 0-17-8-17-17l0-316c0-9 8-17 17-17 9 0 17 8 17 17l0 316c0 9-8 17-17 17z m-233-11c-2 2-6 3-9 2-3-2-5-5-5-8l0-307c0-4 2-7 5-8 1-1 2-1 3-1 2 0 4 1 6 3l154 153c3 4 3 9 0 12z m475 2c-3 1-7 0-9-2l-154-154c-3-3-3-8 0-12l154-153c2-2 4-3 6-3 1 0 2 0 3 1 3 1 5 4 5 8l0 307c0 3-2 6-5 8z m-130 10c1 0 2-1 3-1 1 0 1-1 1-1 2 0 3 0 5 0 1 0 2 0 3 0 0 0 0 0 1 0 0 0 0 0 1 1 0 0 1 0 2 0 0 0 0 1 1 1 0 0 1 1 1 1 1 0 1 1 2 1 0 0 0 1 1 1 0 0 1 1 1 1 0 1 1 1 1 2 0 0 0 0 0 0l42 69c5 9 2 19-6 24-8 5-19 2-24-6l-18-30c-20 57-74 98-138 98-81 0-145-64-145-145 0-9 8-17 17-17 10 0 18 8 18 17 0 62 48 111 110 111 50 0 93-33 107-78l-38 24c-8 5-18 3-23-5-5-8-3-19 5-24l69-44c1 0 1 0 1 0z"/>
<glyph unicode="&#57356;" d="M444 447l-17 0 0 56c0 5-4 9-9 9l-307 0c-5 0-9-4-9-9l0-59-8 0c-14 0-26-12-26-26l0-85c0-14 12-26 26-26l171 0c4 0 8-4 8-8l0-66c-20-3-34-18-34-37l0-170c0-18 18-26 34-26l21 0c19 0 30 10 30 26l0 170c0 20-16 33-34 36l0 67c0 14-11 25-25 25l-171 0c-5 0-9 4-9 9l0 85c0 5 4 9 9 9l8 0 0-43c0-5 4-9 9-9l307 0c5 0 9 4 9 9l0 46 17 0c4 0 8 4 8 9 0 5-4 8-8 8z"/>
<glyph unicode="&#57357;" d="M510 390l-120 119c-3 4-9 4-12 0l-71-70 49-49c3-3 3-9 0-12-2-2-4-3-6-3-2 0-5 1-6 3l-49 49-30-31 57-57c3-4 3-9 0-12-2-2-4-3-6-3-2 0-5 1-6 3l-58 57-34-35 44-44c3-4 3-9 0-12-2-2-4-3-6-3-2 0-4 1-6 3l-44 44-31-31 61-61c4-3 4-9 0-12-1-2-3-3-6-3-2 0-4 1-6 3l-61 61-35-34 49-49c3-4 3-9 0-12-2-2-4-3-6-3-3 0-5 1-6 3l-49 48-31-30 58-57c3-4 3-9 0-12-2-2-4-3-6-3-3 0-5 1-6 3l-58 57-70-71c-4-3-4-9 0-12l119-120c2-1 4-2 6-2 2 0 4 1 6 2l376 376c3 3 3 9 0 12z"/>
<glyph unicode="&#57358;" d="M508 15l-78 79-32-32c-1-1-3-2-6-2-2 0-4 1-6 2-3 4-3 9 0 12l32 32-43 43-36-36c-2-1-4-2-6-2-2 0-5 1-6 2-4 4-4 9 0 12l36 36-40 40-35-36c-2-2-4-3-6-3-3 0-5 1-7 3-3 3-3 8 0 12l36 36-43 43-32-32c-1-1-3-2-6-2-2 0-4 1-6 2-3 4-3 9 0 12l32 32-43 43-36-35c-2-2-4-3-6-3-3 0-5 1-6 3-4 3-4 8 0 12l35 36-39 39-36-36c-1-2-3-3-6-3-2 0-4 1-6 3-3 3-3 8 0 12l36 36-43 43-32-32c-1-1-4-2-6-2-2 0-4 1-6 2-3 4-3 9 0 13l32 31-80 79c-2 3-6 4-9 2-3-1-5-4-5-8l0-494c0-5 4-9 8-9l495 0c0 0 0 0 1 0 4 0 8 4 8 9 0 2-1 5-4 6z m-431 62l0 222 222-222z"/>
<glyph unicode="&#57359;" d="M200 345c-7 7-18 7-24 0-7-7-7-18 0-24l145-145c3-4 7-5 12-5 4 0 9 1 12 5 7 6 7 17 0 24z m-7-128l-159-159 0 44c0 10-8 17-17 17-9 0-17-7-17-17l0-85c0-1 0-2 0-3 0-1 1-1 1-2 0 0 0-1 0-1 1-1 1-2 1-2 0-1 1-1 1-1 1-1 1-2 2-3 0 0 0 0 0 0 1-1 2-2 3-2 0 0 1-1 1-1 0 0 1 0 2-1 0 0 1 0 1 0 1 0 1-1 2-1 1 0 2 0 3 0l85 0c10 0 17 8 17 17 0 9-7 17-17 17l-44 0 159 159c7 6 7 17 0 24-7 7-18 7-24 0z m319 281c0 1-1 1-1 2 0 0 0 1 0 1-1 1-1 2-1 2 0 1-1 1-1 1 0 1-1 2-2 3 0 0 0 0 0 0-1 1-2 2-3 2 0 0-1 1-1 1 0 0-1 0-2 1 0 0-1 0-1 0-1 0-1 1-2 1-1 0-2 0-3 0 0 0 0 0 0 0l-85 0c-10 0-17-8-17-17 0-9 7-17 17-17l44 0-142-142c-6-6-6-17 0-24 4-3 8-5 12-5 5 0 9 2 12 5l142 142 0-44c0-10 8-17 17-17 9 0 17 7 17 17l0 85c0 1 0 2 0 3z"/>
<glyph unicode="&#57360;" d="M336 345c-6 7-17 7-24 0l-145-145c-7-7-7-18 0-24 3-4 8-5 12-5 5 0 9 1 12 5l145 145c7 6 7 17 0 24z m159-226c-9 0-17-7-17-17l0-44-150 150c-7 7-18 7-24 0-7-6-7-17 0-24l150-150-44 0c-10 0-17-8-17-17 0-9 7-17 17-17l85 0c1 0 2 0 3 0 1 0 1 1 2 1 0 0 1 0 1 0 1 1 2 1 2 1 1 0 1 1 1 1 1 0 2 1 3 2 0 0 0 0 0 0 1 1 2 2 2 3 0 0 1 0 1 1 0 0 0 1 1 2 0 0 0 1 0 1 0 1 1 1 1 2 0 1 0 2 0 3l0 85c0 10-8 17-17 17z m-307 188c4 0 8 2 12 5 6 7 6 18 0 24l-142 142 44 0c10 0 17 8 17 17 0 9-7 17-17 17l-85 0c0 0 0 0 0 0-1 0-2 0-3 0-1 0-1-1-2-1 0 0-1 0-1 0-1-1-2-1-2-1 0 0-1-1-1-1-1 0-2-1-3-2 0 0 0 0 0 0-1-1-1-2-2-3 0 0-1 0-1-1 0 0 0-1-1-2 0 0 0-1 0-1 0-1-1-1-1-2 0-1 0-2 0-3l0-85c0-10 8-17 17-17 9 0 17 7 17 17l0 44 142-142c3-3 7-5 12-5z"/>
<glyph unicode="&#57361;" d="M265 367c-10 0-18-8-18-17l0-196c0-10 8-17 18-17 9 0 17 7 17 17l0 196c0 9-8 17-17 17z m-77-94l-126 0 35 30c7 6 7 17 1 24-6 7-17 8-24 2l-68-60c0 0 0 0-1-1 0 0-1-1-1-1 0 0-1-1-1-1 0-1-1-1-1-2 0 0 0-1-1-1 0-1 0-2 0-3 0 0-1 0-1 0 0-2 0-3 0-4 0-1 0-2 0-4 0 0 1 0 1 0 0-1 0-2 0-3 1 0 1-1 1-1 0-1 1-1 1-2 0 0 1-1 1-1 0 0 1-1 1-1 1-1 1-1 1-1l68-60c3-2 7-4 11-4 5 0 10 2 13 6 6 7 6 18-1 24l-35 30 126 0c9 0 17 8 17 17 0 9-8 17-17 17z m324-13c0 0-1 0-1 0 0 1 0 2 0 3-1 0-1 1-1 1 0 1-1 1-1 2 0 0-1 1-1 1 0 0-1 1-1 1-1 1-1 1-1 1l-68 60c-7 6-18 5-24-2-6-7-6-18 1-24l35-30-109 0c-9 0-17-8-17-17 0-9 8-17 17-17l109 0-35-30c-7-6-7-17-1-24 3-4 8-6 13-6 4 0 8 2 11 4l68 60c0 0 0 0 1 1 0 0 1 1 1 1 0 0 1 1 1 1 0 1 1 1 1 2 0 0 0 1 1 1 0 1 0 2 0 3 0 0 1 0 1 0 0 2 0 3 0 4 0 1 0 2 0 4z"/>
<glyph unicode="&#57362;" d="M495 512l-410 0c-9 0-17-8-17-17l0-410c0-9 8-17 17-17l410 0c9 0 17 8 17 17l0 410c0 9-8 17-17 17z m-17-410l-241 0c-3 5-9 9-15 9-6 0-12-4-15-9l-105 0 0 105c5 3 9 9 9 15 0 6-4 12-9 15l0 241 376 0z m-206 153c5 0 9 2 13 5l143 144 0-75c0-10 8-17 18-17 9 0 17 7 17 17l0 116c0 2-1 3-1 4 0 0 0 1 0 1 0 1-1 1-1 2 0 1 0 1-1 2 0 0 0 1 0 1-1 1-2 2-2 3 0 0 0 0 0 0-1 0-2 1-3 2 0 0-1 0-1 0-1 1-1 1-2 1-1 0-1 1-2 1 0 0-1 0-1 0-1 0-2 1-3 1 0 0 0 0-1 0l-116 0c-10 0-17-8-17-18 0-9 7-17 17-17l75 0-144-143c-6-7-6-18 0-25 4-3 8-5 12-5z m-255-127c9 0 17 8 17 17l0 9c0 9-8 17-17 17-9 0-17-8-17-17l0-9c0-9 8-17 17-17z m128 77l9 0c9 0 17 7 17 17 0 9-8 17-17 17l-9 0c-9 0-17-8-17-17 0-10 8-17 17-17z m-128-137c9 0 17 8 17 17l0 9c0 9-8 17-17 17-9 0-17-8-17-17l0-9c0-9 8-17 17-17z m188 137c0-10 7-17 17-17 9 0 17 7 17 17l0 17c0 9-8 17-17 17l-17 0c-10 0-17-8-17-17 0-10 7-17 17-17z m-51-171l-9 0c-9 0-17-8-17-17 0-9 8-17 17-17l9 0c9 0 17 8 17 17 0 9-8 17-17 17z m-60 0l-9 0c-9 0-17-8-17-17 0-9 8-17 17-17l9 0c9 0 17 8 17 17 0 9-8 17-17 17z m-60 205l-17 0c-9 0-17-8-17-17l0-17c0-10 8-17 17-17 9 0 17 7 17 17 10 0 17 7 17 17 0 9-7 17-17 17z m188-188c-10 0-17-7-17-17-10 0-17-8-17-17 0-9 7-17 17-17l17 0c9 0 17 8 17 17l0 17c0 10-8 17-17 17z m-188-17c0 10-8 17-17 17-9 0-17-7-17-17l0-17c0-9 8-17 17-17l17 0c10 0 17 8 17 17 0 9-7 17-17 17z m188 137c-10 0-17-8-17-17l0-9c0-9 7-17 17-17 9 0 17 8 17 17l0 9c0 9-8 17-17 17z"/>
<glyph unicode="&#57363;" d="M495 512l-410 0c-9 0-17-8-17-17l0-273c0-10 8-17 17-17l9 0c9 0 17 7 17 17 0 6-4 12-9 15l0 241 376 0 0-376-241 0c-3 5-9 9-15 9-10 0-17-8-17-17l0-9c0-9 7-17 17-17l273 0c9 0 17 8 17 17l0 410c0 9-8 17-17 17z m-231-124c-9 0-17-7-17-17l0-107c0 0 0 0 0 0 0-1 0-2 1-3 0-1 0-1 0-2 0 0 0-1 0-1 1-1 1-1 1-2 1 0 1-1 1-1 1-1 1-2 2-3 0 0 0 0 0 0 1-1 2-1 3-2 0 0 1 0 1-1 1 0 1 0 2-1 0 0 1 0 1 0 1 0 1 0 2 0 1-1 2-1 3-1l107 0c10 0 17 8 17 17 0 10-7 17-17 17l-66 0 140 140c6 6 6 17 0 24-7 6-18 6-24 0l-140-140 0 66c0 10-7 17-17 17z m-247-260c9 0 17 8 17 17l0 9c0 9-8 17-17 17-9 0-17-8-17-17l0-9c0-9 8-17 17-17z m137 111l-9 0c-9 0-17-8-17-17 0-10 8-17 17-17l9 0c9 0 17 7 17 17 0 9-8 17-17 17z m-137-171c9 0 17 8 17 17l0 9c0 9-8 17-17 17-9 0-17-8-17-17l0-9c0-9 8-17 17-17z m222 154c0 9-8 17-17 17l-17 0c-10 0-17-8-17-17 0-10 7-17 17-17 0-10 7-17 17-17 9 0 17 7 17 17z m-85-188l-9 0c-9 0-17-8-17-17 0-9 8-17 17-17l9 0c9 0 17 8 17 17 0 9-8 17-17 17z m-60 0l-9 0c-9 0-17-8-17-17 0-9 8-17 17-17l9 0c9 0 17 8 17 17 0 9-8 17-17 17z m-60 205l-17 0c-9 0-17-8-17-17l0-17c0-10 8-17 17-17 9 0 17 7 17 17 10 0 17 7 17 17 0 9-7 17-17 17z m188-188c-10 0-17-7-17-17-10 0-17-8-17-17 0-9 7-17 17-17l17 0c9 0 17 8 17 17l0 17c0 10-8 17-17 17z m-188-17c0 10-8 17-17 17-9 0-17-7-17-17l0-17c0-9 8-17 17-17l17 0c10 0 17 8 17 17 0 9-7 17-17 17z m188 137c-10 0-17-8-17-17l0-9c0-9 7-17 17-17 9 0 17 8 17 17l0 9c0 9-8 17-17 17z"/>
<glyph unicode="&#57364;" d="M222 239l-205 0c-9 0-17-8-17-17l0-205c0-9 8-17 17-17l205 0c9 0 17 8 17 17l0 205c0 9-8 17-17 17z m239 108l0 97c0 1 0 2-1 3 0 1 0 1 0 2 0 0 0 1-1 1 0 1 0 1 0 2-1 0-1 1-1 1-1 1-1 2-2 3 0 0 0 0 0 0-1 1-2 1-3 2 0 0-1 0-1 1-1 0-1 0-2 1 0 0-1 0-1 0-1 0-1 0-2 0-1 1-2 1-3 1 0 0 0 0 0 0l-97 0c-10 0-17-8-17-17 0-10 7-17 17-17l56 0-134-134c-7-7-7-18 0-24 3-4 7-5 12-5 4 0 8 1 12 5l134 134 0-56c0-10 7-17 17-17 9 0 17 7 17 17z m-359 97c10 0 17 7 17 17l0 17 18 0c9 0 17 8 17 17 0 9-8 17-17 17l-35 0c-9 0-17-8-17-17l0-34c0-10 8-17 17-17z m393 68l-34 0c-10 0-17-8-17-17 0-9 7-17 17-17l17 0 0-17c0-10 8-17 17-17 9 0 17 7 17 17l0 34c0 9-8 17-17 17z m0-94c-9 0-17-8-17-17l0-26c0-9 8-17 17-17 9 0 17 8 17 17l0 26c0 9-8 17-17 17z m0-85c-9 0-17-8-17-17l0-26c0-9 8-17 17-17 9 0 17 8 17 17l0 26c0 9-8 17-17 17z m-393 25c10 0 17 8 17 17l0 26c0 9-7 17-17 17-9 0-17-8-17-17l0-26c0-9 8-17 17-17z m0-85c10 0 17 8 17 17l0 26c0 9-7 17-17 17-9 0-17-8-17-17l0-26c0-9 8-17 17-17z m393-26c-9 0-17-7-17-17l0-25c0-10 8-17 17-17 9 0 17 7 17 17l0 25c0 10-8 17-17 17z m-273 265l-26 0c-9 0-17-8-17-17 0-9 8-17 17-17l26 0c9 0 17 8 17 17 0 9-8 17-17 17z m60-34l25 0c10 0 17 8 17 17 0 9-7 17-17 17l-25 0c-10 0-17-8-17-17 0-9 7-17 17-17z m86 0l33 0c9 0 17 8 17 17 0 9-8 17-17 17l-33 0c-10 0-18-8-18-17 0-9 8-17 18-17z m-61-350l-25 0c-10 0-17-8-17-17 0-9 7-17 17-17l25 0c10 0 17 8 17 17 0 9-7 17-17 17z m94 0l-33 0c-10 0-18-8-18-17 0-9 8-17 18-17l33 0c9 0 17 8 17 17 0 9-8 17-17 17z m94 34c-9 0-17-8-17-17l0-17-17 0c-10 0-17-8-17-17 0-9 7-17 17-17l34 0c9 0 17 8 17 17l0 34c0 9-8 17-17 17z"/>
<glyph unicode="&#57365;" d="M350 265l-205 0c-9 0-17-8-17-18 0-9 8-17 17-17l205 0c9 0 17 8 17 17 0 10-8 18-17 18z m-56-168l-29-35 0 117c0 10-8 17-18 17-9 0-17-7-17-17l0-117-29 35c-7 7-17 7-25 1-7-6-7-17-1-24l60-68c0 0 0 0 0-1 0 0 1-1 2-1 0 0 0-1 1-1 0 0 1-1 2-1 0 0 0 0 1-1 0 0 1 0 2 0 0 0 1-1 1-1 1 0 2 0 3 0 2 0 3 0 4 0 0 0 1 1 1 1 1 0 2 0 2 0 1 1 1 1 1 1 1 0 2 1 2 1 1 0 1 1 1 1 1 0 1 1 2 1 0 1 0 1 0 1l60 68c6 7 6 18-2 24-7 6-17 6-24-1z m-93 318l29 35 0-117c0-10 8-17 17-17 10 0 18 7 18 17l0 117 29-35c4-3 8-5 13-5 4 0 8 1 11 4 8 6 8 17 2 24l-60 68c0 0 0 0 0 0-1 1-1 2-2 2 0 0 0 1 0 1-3 2-7 3-11 3-3 0-7-1-10-3 0 0 0-1 0-1-1 0-1-1-2-2 0 0 0 0 0 0l-60-68c-6-7-6-18 1-24 8-6 18-6 25 1z"/>
<glyph unicode="&#57366;" d="M116 412l229 0-20-21c-7-6-7-17 0-24 3-3 8-5 12-5 4 0 9 2 12 5l49 50c1 0 2 1 2 2 1 0 1 1 1 1 0 1 1 1 1 2 0 0 0 1 0 1 1 1 1 2 1 2 0 1 0 3 0 4 0 1 0 2 0 3 0 1 0 1-1 2 0 0 0 1 0 1 0 1-1 2-1 2 0 1 0 1-1 1 0 1-1 2-2 3l-49 49c-7 7-17 7-24 0-7-7-7-18 0-24l20-20-229 0c-10 0-18-8-18-17 0-10 8-17 18-17z m-99-140c9 0 17 8 17 17l0 18 8 0c9 0 17 8 17 17 0 10-8 17-17 17l-25 0c-9 0-17-7-17-17l0-35c0-9 8-17 17-17z m491 60c-3 6-9 9-15 9l-271 0c-1 0-3 0-5 0-1 0-3 0-5 0l-34 0c-9 0-17-7-17-17 0-9 8-17 17-17l10 0-163-216c-2 1-5 2-8 2-9 0-17-8-17-17l0-25c0-1 0-2 0-2 0-1 0-1 0-1 1-1 1-3 2-4 0 0 0 0 0 0 0-1 0-1 0-1 1-1 1-2 2-3 0 0 0 0 1-1 1-1 2-1 3-2 0 0 0 0 1-1 1 0 2-1 3-1 0 0 0 0 1 0 1-1 3-1 4-1l269 0c5 0 10 3 14 7l207 273c3 5 4 12 1 18z m-216-245c-3 4-7 6-12 6-10 0-17-8-17-17l0-8-212 0 180 239 32 0 0-18c0-9 7-17 17-17 9 0 17 8 17 17l0 18 162 0z m-12 169c-10 0-17-8-17-17l0-26c0-9 7-17 17-17 9 0 17 8 17 17l0 26c0 9-8 17-17 17z m0-85c-10 0-17-8-17-17l0-26c0-9 7-17 17-17 9 0 17 8 17 17l0 26c0 9-8 17-17 17z m-263 25c9 0 17 8 17 17l0 26c0 9-8 17-17 17-9 0-17-8-17-17l0-26c0-9 8-17 17-17z m0-85c9 0 17 8 17 17l0 26c0 9-8 17-17 17-9 0-17-8-17-17l0-26c0-9 8-17 17-17z m76 196l25 0c10 0 18 8 18 17 0 10-8 17-18 17l-25 0c-10 0-17-7-17-17 0-9 7-17 17-17z"/>
<glyph unicode="&#57367;" d="M213 273l-170 0c-5 0-9-4-9-8l0-256c0-5 4-9 9-9l170 0c5 0 9 4 9 9l0 256c0 4-4 8-9 8z m-142 9l115 0c0 0 0 0 0 0 4 0 8 3 8 8 0 2 0 4-1 5l-15 33c-1 3-4 5-7 5l-82 0c-4 0-7-2-8-5l-17-34c-2-3-2-6 0-8 1-3 4-4 7-4z m40 93l8 0 0-25c0-4 4-8 9-8 5 0 9 4 9 8l0 25 8 0c5 0 9 4 9 9l0 34c0 5-4 9-9 9l-34 0c-5 0-9-4-9-9l0-34c0-5 4-9 9-9z m204 35l-65 0c-5 0-8-4-8-9 0-5 3-8 8-8l65 0c4 0 8 3 8 8 0 5-4 9-8 9z m-5-69l-68 25c-4 2-9 0-11-5-2-4 1-9 5-11l68-25c1-1 2-1 3-1 4 0 7 2 8 6 2 4 0 9-5 11z m-71 86c1 0 2 0 3 0l68 26c5 1 7 6 5 11-1 4-6 6-11 5l-68-26c-4-1-7-6-5-11 1-3 4-5 8-5z m213-31c0 28-16 51-41 60 1 12-2 24-10 35-10 13-26 21-43 21-5 0-9-4-9-9 0-4 4-8 9-8 11 0 22-6 29-15 7-8 8-18 5-28 0-2 0-5 1-7 2-2 4-3 6-4 22-4 36-22 36-45 0-25-14-42-36-46-2 0-5-2-6-4-1-2-1-5 0-8 4-8 4-17-1-25-6-10-20-16-34-16-5 0-9-4-9-9 0-4 4-8 9-8 20 0 39 9 48 24 7 10 8 21 6 32 25 8 40 31 40 60z"/>
<glyph unicode="&#57368;" d="M461 173l-109 0c-71 49-40 120-14 177 11 24 20 45 20 62 0 64-51 98-102 98-51 0-102-34-102-98 0-17 9-38 20-62 26-57 58-128-14-177l-109 0c-28 0-51-25-51-54l0-74c0-5 4-9 9-9l8 0 0-25c0-5 4-9 9-9l460 0c5 0 9 4 9 9l0 25 8 0c5 0 9 4 9 9l0 74c0 29-23 54-51 54z m17-154l-444 0 0 17 444 0z"/>
<glyph unicode="&#57369;" d="M375 256l-17 0 0 9c0 4-3 8-8 8l-273 0c-5 0-9-4-9-8l0-214c0-29 23-51 51-51l188 0c29 0 51 22 51 51l0 68 17 0c40 0 69 29 69 69 0 39-29 68-69 68z m0-119l-17 0 0 102 17 0c31 0 52-21 52-51 0-30-21-51-52-51z m-320 289c-2 1-6 1-9-1-2-2-4-5-3-8l8-65 58 43z m39-136l68 0c0 0 0 0 0 0 5 0 9 4 9 8 0-4 4-8 8-8l103 0c1 0 2 1 3 1 2 0 3-1 4-1l45 0c3 0 6 2 7 5l37 79c21 3 36 22 40 48 4 35-13 77-61 88-3 1-7 0-9-3-2-3-2-7 0-10 13-19 3-31-8-45-4-6-9-11-11-17-5-12-5-24-1-34 2-5 5-9 9-13l-47-72 0 8-43 0c-4 0-8 4-8 9 0 5 4 8 8 8l43 0 0 34-60 0c-4 0-8 4-8 9 0 5 4 9 8 9l60 0 0 17-43 0c-4 0-8 3-8 8 0 5 4 9 8 9l43 0 0 17-60 0c-4 0-8 4-8 8 0 5 4 9 8 9l60 0 0 42c0 5-4 9-8 9l-103 0c-5 0-8-4-8-9l0-203c-1 1-1 3-2 4l-48 79-62-47 28-42c1-2 4-4 7-4z m251 138c1 4 5 9 9 13 8 11 20 26 17 46 24-14 32-40 30-63-2-15-11-33-29-33-4 0-8 1-13 3-7 3-13 8-15 14-3 6-2 13 1 20z"/>
<glyph unicode="&#57370;" d="M333 512l-256 0c-1 0-1 0-1 0-1 0-2 0-3 0-40 0-73-35-73-77l0-273c0-5 4-8 9-8l59 0 0-145c0-5 4-9 9-9l256 0c5 0 8 4 8 9l0 350c37 5 69 39 69 76 0 40-37 77-77 77z m-265-94l0-247-51 0 0 264c0 32 26 60 56 60 1 0 2 0 3 0 25-8 39-20 46-33 4-8 6-17 6-27 0-3 0-6-1-8l-50 0c-5 0-9-4-9-9z m25-40c-1 0-2 0-3-1-1 0-2 0-2 0-1 0-2-1-3-1l0 34 38 0c-6-13-16-26-30-32z m84-137l-43-42c-2-2-4-3-6-3-2 0-4 1-6 3l-9 8c-3 4-3 9 0 12 4 4 9 4 13 0l2-2 37 36c3 4 8 4 12 0 3-3 3-8 0-12z m0 86l-43-43c-2-2-4-2-6-2-2 0-4 0-6 2l-9 9c-3 3-3 8 0 12 4 3 9 3 13 0l2-3 37 37c3 3 8 3 12 0 3-4 3-9 0-12z m113-225l-85 0c-5 0-9 4-9 9 0 5 4 8 9 8l85 0c5 0 9-3 9-8 0-5-4-9-9-9z m0 86l-85 0c-5 0-9 4-9 8 0 5 4 9 9 9l85 0c5 0 9-4 9-9 0-4-4-8-9-8z m0 85l-85 0c-5 0-9 4-9 9 0 4 4 8 9 8l85 0c5 0 9-4 9-8 0-5-4-9-9-9z m179 120c-17 0-35-14-40-26-19-3-36-15-36-43l0-154c0-5 3-9 8-9 5 0 9 4 9 9l0 154c0 16 8 23 17 25l0-144 85 0 0 153c0 15-22 35-43 35z m-42-350c0-23 20-43 42-43 21 0 43 20 43 51l-85 0z m0 145l85 0 0-120-85 0z"/>
<glyph unicode="&#57371;" d="M99 102l119 0 0-17-119 0z m0-51c0-29 33-51 62-51 27 0 57 22 57 51l0 17-119 0z m68 273l51 0 0-205-51 0z m-68 0l51 0 0-205-51 0z m67 115c-3 6-12 6-15 0l-49-98 113 0z m231 73l-136 0c-5 0-9-4-9-9l0-59 60 0c5 0 8-4 8-9 0-5-3-8-8-8l-60 0 0-69 60 0c5 0 8-3 8-8 0-5-3-9-8-9l-60 0 0-68 60 0c5 0 8-4 8-8 0-5-3-9-8-9l-60 0 0-68 60 0c5 0 8-4 8-9 0-5-3-8-8-8l-60 0 0-69 60 0c5 0 8-3 8-8 0-5-3-9-8-9l-60 0 0-76c0-5 4-9 9-9l136 0c5 0 9 4 9 9l0 494c0 5-4 9-9 9z"/>
<glyph unicode="&#57372;" d="M503 393l-68 0c-5 0-8-4-8-9l0-26-52 0c-54 0-102-13-138-38-2 4-3 8-5 11l88 88c9-6 19-9 30-9 28 0 51 23 51 51 0 28-23 51-51 51-28 0-51-23-51-51 0-11 3-21 9-30l-88-88c-7 4-15 7-24 7-23 0-42-19-42-43 0-8 2-17 7-23l-85-85c-8 4-16 6-25 6-28 0-51-23-51-51 0-29 23-52 51-52 28 0 51 23 51 52 0 13-5 25-13 34l84 84c4-3 8-5 12-6-20-35-31-79-31-129l0-52-26 0c-5 0-9-3-9-8l0-68c0-5 4-9 9-9l68 0c5 0 9 4 9 9l0 68c0 5-4 8-9 8l-25 0 0 52c0 51 12 95 34 129 17 3 31 17 33 35 35 26 82 40 137 40l52 0 0-25c0-5 3-9 8-9l68 0c5 0 9 4 9 9l0 68c0 5-4 9-9 9z"/>
<glyph unicode="&#57373;" d="M195 222l21 94c2 12 13 21 25 21l0 0c13 0 24-7 27-19l27-96 25 0 52 280c0 2 0 5-2 7-2 2-4 3-7 3l-77 0 0-148c0-5-4-9-9-9-4 0-8 4-8 9l0 148-53 0 0-148c0-5-4-9-8-9-5 0-9 4-9 9l0 148-72 0c-3 0-5-1-7-3-1-2-2-5-2-7l53-280z m122-93l73 61c3 2 4 6 3 9-1 4-4 6-8 6l-96 0c-4 0-7 2-8 6l-29 102c-2 4-6 7-11 7-4 0-8-3-9-8l-21-100c-1-4-5-7-9-7l-97 0c-3 0-7-2-8-6-1-3 0-7 3-9l42-34 33-27 0 0 5-4-38-91c0-1 0-2 0-3-1-3 1-7 4-9 3-2 8-2 12 1l43 35 41 34 5-4 22-17 70-52c2-1 3-2 5-2 2 0 4 1 5 2 3 2 5 6 3 10l-40 96z"/>
<glyph unicode="&#57374;" d="M306 156c-14-17-35-27-57-27-22 0-43 10-57 27-12-3-24-3-36-1l0-146c0-4 3-7 6-8 3-2 7-1 9 1l79 80 80-80c1-1 3-2 6-2 1 0 2 0 3 1 3 1 5 4 5 8l0 147c-12-3-25-3-38 0z m123 139c0 0 0 1 0 2 0 1-1 3-1 5 0 1 0 1 0 2-1 2-1 3-2 5 0 1-1 1-1 2 0 1-1 3-2 4 0 1-1 2-1 3-1 1-2 2-3 4 0 0-1 1-1 2-2 2-3 3-5 5 2 2 3 4 5 6 0 0 1 1 1 2 1 1 2 2 3 4 0 1 1 1 1 2 1 1 2 3 2 5 0 0 1 1 1 2 1 1 1 3 2 4 0 1 0 2 0 3 0 1 1 3 1 5 0 0 0 1 0 2 0 2 0 3 0 5 0 1 0 1 0 2 0 2 0 4 0 5 0 1 0 2 0 3-1 2-2 4-2 7-1 2-2 4-3 7-1 0-1 1-1 2-1 1-2 3-3 4 0 1-1 2-2 2 0 1-1 3-2 4-1 0-2 1-2 2-1 1-2 2-3 3-1 1-2 1-3 2-1 1-2 2-3 2-1 1-2 1-3 2-1 1-2 1-4 2-1 1-1 1-2 1-2 1-3 2-5 2-1 0-2 1-2 1-3 0-5 1-8 1 1 3 1 5 1 8 0 0 0 1 0 2 0 2 0 3 0 5 0 1-1 2-1 2 0 2 0 4-1 5 0 1 0 2 0 2-1 2-1 4-2 5 0 1 0 2-1 2 0 2-1 3-2 5 0 1-1 1-1 2-1 1-2 3-3 4-1 1-1 1-1 2-2 1-3 3-4 4-1 0-1 1-2 1-1 2-3 4-5 5-2 2-5 3-7 4 0 0 0 0-1 1-2 1-4 1-6 2 0 0 0 0-1 0-9 4-20 4-30 2 0 0 0 0 0 0-2 0-4-1-7-1 0 0 0 0-1-1-2 0-4-1-7-3-1 3-2 5-3 7-1 0-2 1-2 2-1 1-2 2-3 3-1 1-1 2-2 2-1 1-2 3-3 4-1 0-2 1-2 1-2 1-3 2-5 3 0 0-1 1-1 1-2 1-3 2-5 3-1 0-1 0-2 1-2 0-3 1-5 1-1 1-1 1-2 1-2 0-4 1-6 1 0 0-1 0-2 0-2 1-5 1-7 1-3 0-5 0-8-1 0 0-1 0-2 0-2 0-3-1-5-1-1 0-2 0-2-1-2 0-4-1-5-2-1 0-2 0-2 0-2-1-3-2-5-3-1 0-1-1-2-1-1-1-3-2-4-3-1 0-1-1-2-1-1-1-2-3-4-4 0 0-1-1-1-2-1-1-2-2-3-3-1-1-1-2-2-2-1-2-3-4-4-7-2 2-4 3-7 3 0 1 0 1-1 1-2 0-4 1-6 1 0 0 0 0-1 0-10 2-20 2-30-2 0 0 0 0 0 0-2-1-4-1-6-2-1-1-1-1-2-1-2-1-4-2-6-4-2-1-4-3-6-5 0 0-1-1-1-1-2-1-3-3-4-4 0-1-1-1-1-2-1-1-2-3-3-4-1-1-1-1-1-2-1-2-2-3-3-5 0 0 0-1 0-2-1-1-2-3-2-4 0-1-1-2-1-3 0-1 0-3-1-4 0-1 0-2 0-3 0-2 0-3 0-5 0-1 0-1 0-2 0-3 0-5 0-8-2 0-5-1-7-1-1 0-2-1-2-1-2 0-3-1-5-2-1 0-2 0-2-1-2-1-3-1-5-2 0-1-1-1-2-2-1 0-2-1-4-2 0-1-1-1-2-2-1-1-2-2-3-3-1-1-1-1-2-2-1-1-2-3-3-4 0 0-1-1-2-2 0-1-1-3-2-4 0-1-1-2-1-2-1-3-2-5-3-7-1-3-1-5-2-7 0-1 0-2 0-2 0-2-1-4-1-6 0-1 0-1 0-2 0-2 0-3 0-5 1-1 1-2 1-2 0-2 0-4 1-5 0-1 0-2 0-3 1-1 1-3 2-4 0-1 0-2 1-3 0-1 1-3 2-4 0-1 0-1 1-2 1-2 2-3 3-4 0-1 0-2 1-2 1-2 3-4 5-6-2-2-4-3-5-5-1-1-1-2-1-2-1-2-2-3-3-4-1-1-1-2-1-3-1-1-2-3-2-4-1-1-1-2-1-2-1-2-1-3-2-5 0-1 0-2 0-2-1-2-1-4-1-5 0-1 0-2-1-3 0-1 0-3 0-5 0 0 0-1 0-2 0-2 1-3 1-5 0-1 0-1 0-2 1-3 1-5 2-7 1-3 2-5 3-7 0-1 1-2 1-2 1-2 2-3 2-5 1 0 2-1 2-2 1-1 2-2 3-3 1-1 1-2 2-2 1-2 2-3 3-4 1 0 2-1 2-1 2-1 3-2 4-3 1-1 2-1 2-2 2 0 3-1 5-2 0 0 1-1 2-1 1-1 3-1 5-2 0 0 1 0 2 0 2-1 5-2 7-2 0-2 0-5 0-7 0-1 0-2 0-3 0-1 0-3 0-5 0 0 0-1 0-2 1-2 1-3 1-5 0-1 1-1 1-2 0-2 1-3 2-5 0-1 0-1 0-2 1-1 2-3 3-5 0 0 0-1 1-1 1-2 2-3 3-5 0 0 1-1 1-2 1-1 2-2 4-3 0-1 1-1 1-2 2-2 4-3 6-5 2-1 4-3 6-4 1 0 1 0 1 0 2-1 5-2 7-3 0 0 0 0 0 0 1 0 2-1 3-1l0 0c12-3 24-3 36 1 1 1 2 1 3 1 3 0 5-2 7-4 10-15 28-25 47-25 19 0 36 10 47 25 2 3 6 5 10 3 12-4 26-4 38 0l0 0c0 0 0 0 0 0 1 0 1 0 1 0 2 1 4 2 6 3 0 0 1 0 1 0 2 2 5 3 7 4 2 2 4 3 5 5 1 1 1 1 2 2 1 1 2 2 4 3 0 1 1 2 1 2 1 2 2 3 3 4 0 1 1 2 1 3 1 1 2 2 2 4 1 1 1 1 1 2 1 2 1 3 2 5 0 1 0 1 0 2 1 2 1 3 1 5 0 1 1 2 1 2 0 2 0 3 0 5 0 1 0 2 0 3 0 2 0 5-1 7 3 0 5 1 8 2 0 0 1 0 2 0 2 1 3 1 5 2 1 0 1 1 2 1 2 1 3 2 4 2 1 1 2 1 3 2 1 1 2 2 3 3 1 0 2 1 2 1 2 1 3 2 4 4 0 0 1 1 2 2 1 1 2 2 2 3 1 1 2 2 2 2 1 2 2 3 3 5 0 0 1 1 1 2 1 2 2 4 3 7 0 0 0 0 0 0 0 0 0 0 0 0 1 2 1 4 2 7 0 1 0 1 0 2 0 2 0 3 0 5 0 1 0 2 0 2 0 2 0 4 0 6z m-82 69l-49-49 25-75c0-1 0-3-2-4-1-1-1-1-2-1-1 0-2 0-3 0l-66 42-66-42c-1-1-3-1-5 1-1 1-2 3-1 4l25 75-50 49c-1 1-1 3 0 5 0 1 2 2 3 2l58 0 33 58c1 2 6 2 7 0l33-58 57 0c2 0 3-1 4-2 1-2 0-4-1-5z"/>
<glyph unicode="&#57375;" d="M83 221l-82-140c-2-3-1-6 1-9 2-3 5-4 8-4l78 16 23-70c1-3 4-5 7-5 1 0 1 0 1 0 3 0 6 1 7 3l76 109c-52 16-94 53-119 100z m428-131l-72 119c-26-43-69-76-119-90l65-106c1-3 4-4 7-4 0 0 0 0 1 0 3 0 6 2 7 5l24 71 79-8c3 0 6 1 8 4 1 2 1 6 0 9z m-59 226c0 103-84 187-187 187-104 0-188-84-188-187 0-104 84-188 188-188 103 0 187 84 187 188z m-149-19l22-65-58 36c-1 1-2 1-2 1-1 0-2 0-3-1l-58-36 22 65c0 2 0 4-1 5l-43 35 48 0c2 0 3 1 4 2l31 61 30-61c1-1 2-2 4-2l48 0-43-35c-1-1-1-3-1-5z"/>
<glyph unicode="&#57376;" d="M206 352l-70 155c-2 3-5 5-8 5l-47 0 80-179c14 8 29 14 45 19z m-59-29l-84 189-46 0c-3 0-6-1-7-4-2-2-2-5-1-8l99-214c11 14 24 27 39 37z m355 185c-1 3-4 4-7 4l-46 0-84-189c15-10 28-23 39-37l99 214c1 3 1 6-1 8z m-71 4l-47 0c-3 0-6-2-8-5l-70-155c16-5 31-11 45-19z m-175-171c-94 0-171-76-171-170 0-94 77-171 171-171 94 0 171 77 171 171 0 94-77 170-171 170z m97-148l-49-41 24-74c1-2 0-3-1-5-1 0-2 0-3 0-1 0-1 0-2 0l-66 41-66-41c-2-1-3-1-5 0-1 2-2 3-1 5l24 74-49 41c-1 1-1 3-1 5 1 1 2 3 4 3l57 0 33 65c2 3 6 3 8 0l33-65 57 0c2 0 3-2 4-3 0-2 0-4-1-5z"/>
<glyph unicode="&#57377;" d="M307 512l-34 0 0-154c12 0 23-2 34-5z m68-61c0 0 0 1 0 1l0 51c0 5-3 9-8 9l-43 0 0-163c11-4 21-8 31-14z m-201-116c10 6 20 10 31 14l0 163-43 0c-5 0-8-4-8-9l0-51c0 0 0-1 0-1z m82 177l-34 0 0-159c11 3 22 5 34 5z m9-171c-95 0-171-76-171-170 0-94 76-171 171-171 94 0 170 77 170 171 0 94-76 170-170 170z m96-148l-49-41 25-74c0-2 0-3-2-5 0 0-1 0-2 0-1 0-2 0-2 0l-66 41-66-41c-2-1-4-1-5 0-2 2-2 3-2 5l25 74-49 41c-1 1-2 3-1 5 0 1 2 3 4 3l57 0 33 65c1 3 6 3 7 0l33-65 57 0c2 0 4-2 4-3 1-2 1-4-1-5z"/>
<glyph unicode="&#57378;" d="M401 512l-85 0 0-288 93 225c0 1 1 2 1 3l0 51c0 5-4 9-9 9z m-120-200l18-44 0 244-34 0 0-184c7-2 13-8 16-16z m-92-88l7 15 0 273-77 0c-4 0-8-4-8-9l0-51c0-1 0-2 0-3z m58 105l0 183-34 0 0-236 18 38c3 7 9 12 16 15z m154-124l-96 0-6 15-33 86c-1 1-1 2-2 3 0 0-1 1-1 1 0 0-1 1-1 1 0 0-1 0-1 0-1 1-3 2-5 2-4 0-7-2-9-5l0 0c0 0 0-1-1-1l-33-72 0 0-14-30-3 0 0 0c0 0 0 0 0 0l0 0-94 0c-3 0-6-2-8-6-1-3 0-7 3-9l81-74-1-4 0 0-23-102c-1-3 1-7 4-9 3-2 7-1 10 1l37 31 51 41 5-5c0 0 0 0 0 0l75-67c1-1 3-2 5-2 2 0 3 0 5 1 3 2 4 6 4 9l-4 17-20 85 0 0-1 4 82 74c2 2 3 6 2 9-1 4-4 6-8 6z"/>
<glyph unicode="&#57379;" d="M469 417c-23 0-42-19-42-43 0-15 8-28 20-36l-72-71-102 102c20 7 34 26 34 48 0 28-23 51-51 51-28 0-51-23-51-51 0-22 14-41 34-48l-102-102-72 71c12 8 20 21 20 36 0 24-19 43-42 43-24 0-43-19-43-43 0-23 19-43 43-43 0 0 1 1 1 1l42-173c0-4 4-7 8-7l324 0c4 0 8 3 8 7l42 173c0 0 1-1 1-1 24 0 43 20 43 43 0 24-19 43-43 43z m-42-282l-342 0c-26 0-40-21-40-43 0-21 14-42 40-42l342 0c26 0 40 21 40 42 0 22-14 43-40 43z"/>
<glyph unicode="&#57380;" d="M435 85l-375 0c-13 0-23-5-31-13-5-6-8-13-9-21-1-3-1-6-1-8 0-22 14-43 41-43l375 0c27 0 41 21 41 43 0 21-14 42-41 42z m-188 427c-30 0-54-22-59-51l119 0c-5 29-30 51-60 51z m-8-119l0-35c0-4 3-7 7-8 1 0 1 0 2 0 0 0 0 0 1 0 4 1 7 4 7 8l0 35c26 4 47 25 51 51l-119 0c4-26 25-47 51-51z m-176-289l3-2 363 0 2 2c42 27 64 64 64 109 0 79-54 137-128 137-19 0-37-4-56-14 45-21 74-66 74-121 0-16-3-32-8-47-1-3-5-5-8-5-1 0-2 0-3 0-4 2-7 7-5 11 5 13 7 27 7 41 0 68-51 118-120 118-68 0-121-52-121-118 0-14 2-27 7-40 1-5-1-10-6-11-4-2-9 1-10 5-6 15-8 30-8 46 0 53 30 98 74 120-14 8-33 15-56 15-74 0-128-58-128-137 0-42 23-81 63-109z"/>
<glyph unicode="&#57381;" d="M469 401c-23 0-42-19-42-43 0-20 14-36 32-41-6-25-27-95-92-95-67 0-94 106-101 137 24 5 41 26 41 51 0 28-23 51-51 51-28 0-51-23-51-51 0-25 18-46 41-51-4-31-26-137-92-137-65 0-93 70-101 95 19 5 32 22 32 41 0 24-19 43-42 43-24 0-43-19-43-43 0-21 15-38 35-42l42-241c1-4 4-7 8-7l342 0c4 0 7 3 8 7l42 241c20 4 35 21 35 42 0 24-19 43-43 43z m-42-350l-342 0c-4 0-8-4-8-8 0-5 4-9 8-9l342 0c4 0 8 4 8 9 0 4-4 8-8 8z"/>
<glyph unicode="&#57382;" d="M191 511c-3 2-7 1-10-2-2-3-2-8 0-11 55-71 57-189 8-254-10 15-13 34-17 53l-1 3c-1 3-3 6-5 7-3 1-6 0-8-1-61-44-86-118-63-189 23-71 86-117 162-117 84 0 141 48 157 133 25 131-59 314-223 378z m64-446c-31 0-56 21-62 51 0 3 1 6 3 8 2 2 5 2 8 2 1-1 3-1 4-1 15 0 36 15 47 34 5 8 12 24 4 39-2 3-2 6 0 9 1 2 4 4 7 4 12 0 22-5 30-13 16-17 22-48 21-71-1-35-29-62-62-62z"/>
<glyph unicode="&#57383;" d="M43 512c-10 0-17-8-17-17l0-478c0-9 7-17 17-17 9 0 17 8 17 17l0 478c0 9-8 17-17 17z m423-62c-2 2-5 3-7 2-1 0-65-17-116-17-18 0-33 2-42 7-13 5-15 13-15 18 0 17-10 38-58 38-58 0-142-28-145-29-4-1-6-5-6-8l0-256c0-3 1-5 3-7 3-2 5-2 8-1 1 0 83 26 138 26 43 0 43-16 43-21 0-19 13-41 71-41 0 0 0 0 0 0 54 0 120 18 123 19 4 1 6 4 6 8l0 256c0 2-1 5-3 6z"/>
<glyph unicode="&#57384;" d="M483 169l-149 119 149 124c3 2 4 6 3 9-1 3-5 6-8 6l-231 0 0 59c0 5-3 9-8 9l-154 0c-4 0-8-4-8-9l0-273c0-4 4-8 8-8l76 0 0-43c0-5 4-8 9-8l308 0c3 0 7 2 8 5 1 4 0 8-3 10z m-266 30c-18-8-31-14-39-19l0 25 53 0c-6-3-11-5-14-6z m-174 313c-10 0-17-8-17-17l0-478c0-9 7-17 17-17 9 0 17 8 17 17l0 478c0 9-8 17-17 17z"/>
<glyph unicode="&#57385;" d="M491 238l-153 120 154 122c2 2 3 6 2 9-1 4-4 6-8 6l-392 0c-5 0-9-4-9-9l0-256c0-4 4-8 9-8l392 0c0 0 0 0 0 0 5 0 9 4 9 8 0 4-2 6-4 8z m-440 274c-9 0-17-8-17-17l0-478c0-9 8-17 17-17 9 0 17 8 17 17l0 478c0 9-8 17-17 17z"/>
<glyph unicode="&#57386;" d="M480 349l-316 145c-2 1-5 1-8 0-2-2-4-5-4-8l0-281c0-3 2-6 4-7 1-1 3-2 5-2 1 0 2 0 3 1l316 136c3 2 5 5 5 8 0 4-2 7-5 8z m-379 163c-9 0-17-8-17-17l0-478c0-9 8-17 17-17 9 0 17 8 17 17l0 478c0 9-8 17-17 17z"/>
<glyph unicode="&#57387;" d="M430 375l-317 133c-3 2-6 4-9 4 0 0-1 0-1 0 0 0 0 0-1 0 0 0 0 0 0 0 0 0-1 0-1 0-9-1-16-8-16-17l0-478c0-9 8-17 17-17 10 0 17 8 17 17l0 203 311 139c3 2 5 5 5 8 0 3-2 6-5 8z"/>
<glyph unicode="&#57388;" d="M510 330l-180 179c-3 4-8 4-12 0l-130-130-37 37c-3 3-9 3-12 0l-111-111c-3-4-3-9 0-12l179-180c2-1 4-2 6-2 3 0 5 1 6 2l54 54 37-37c3-3 8-3 12 0l188 188c3 4 3 9 0 12z m-206-170l-19 19 32 32c-6-17-11-35-13-51z m-275 100c-7 6-17 6-24 0-7-7-7-18 0-25l230-230c4-3 8-5 12-5 5 0 9 2 13 5 6 7 6 17 0 24z"/>
<glyph unicode="&#57389;" d="M467 424c-2 2-4 3-6 3l-196-1 0 60c0 5-4 9-9 9l-154 0c-4 0-8-4-8-9l0-273c0-4 4-8 8-8l77 0 0-43c0-5 4-8 9-8l273 0c5 0 8 3 8 8l0 256c0 2-1 5-2 6z m-271-241l0 22 44 0c-16-6-32-14-44-22z m-136 329c-10 0-17-8-17-17l0-478c0-9 7-17 17-17 9 0 17 8 17 17l0 478c0 9-8 17-17 17z"/>
<glyph unicode="&#57390;" d="M479 495l-375 0c-4 0-8-4-8-9l0-256c0-4 4-8 8-8l375 0c5 0 8 4 8 8l0 256c0 5-3 9-8 9z m-418 17c-10 0-17-8-17-17l0-478c0-9 7-17 17-17 9 0 17 8 17 17l0 478c0 9-8 17-17 17z"/>
<glyph unicode="&#57391;" d="M0 17l512 0 0 341-512 0z m284 242l64 43c3 2 6 2 9 0 3-2 5-5 4-8l-21-194c-1-4-4-8-9-8 0 0 0 0-1 0-4 1-8 5-7 10l19 175-49-33c-4-2-9-1-12 3-2 4-1 9 3 12z m-168-54l55 0 0 60c0 4 3 8 8 8 5 0 9-4 9-8l0-60 57 0c5 0 9-4 9-9 0-4-4-8-9-8l-57 0 0-51c0-5-4-9-9-9-5 0-8 4-8 9l0 51-55 0c-5 0-8 4-8 8 0 5 3 9 8 9z m55 290l170 0 0-120-170 0z m-17 0l-102 0c-14 0-27-5-37-15-10-9-15-22-15-36l0-69 154 0z m343-15c-10 10-23 15-37 15l-102 0 0-120 154 0 0 69c0 14-5 27-15 36z"/>
<glyph unicode="&#57392;" d="M9 393l-9 0 0-384c0-5 4-9 9-9l494 0c5 0 9 4 9 9l0 384z m366-231l-76 0 0-85-86 0 0 85-76 0 0 77 76 0 0 77 86 0 0-77 76 0z m85 350l-102 0 0-102 154 0 0 50c0 29-23 52-52 52z m-289 0l170 0 0-102-170 0z m-17-102l0 102-102 0c-29 0-52-23-52-52l0-50z"/>
<glyph unicode="&#57393;" d="M495 265c0 22-20 42-43 42l-160 0c5 23 15 77 15 111 0 41-21 59-43 59-19 0-34-14-34-33 0-78-72-171-162-171l-59 0c-5 0-9-4-9-8l0-188c0-5 4-9 9-9 99 0 136-11 165-21 23-7 42-13 79-13l140 0c12 0 34 12 34 34 0 11-3 20-8 27 21 3 33 18 33 42 0 7-2 13-6 18 18 5 32 22 32 41 0 10-6 20-14 28 17 5 31 22 31 41z"/>
<glyph unicode="&#57394;" d="M512 282c0 22-20 42-43 42l-158 0c9 25 27 80 18 112-13 47-40 50-48 50-19 0-34-16-34-36 0-70-62-147-110-170l0-208c17-3 31-6 43-9 27-7 48-12 85-12l145 0c22 0 34 12 34 34 0 7-2 13-6 18 19 4 31 16 31 34 0 10-2 19-7 26 18 5 33 22 33 42 0 10-5 20-13 27 21 7 30 32 30 50z m-401 25l-102 0c-3 0-5 0-6-2-2-2-3-4-3-6l0-256c0-5 4-9 9-9l102 0c5 0 8 4 8 9l0 256c0 4-3 8-8 8z m-38-234c-6 0-11 5-11 11 0 6 5 10 11 10 6 0 11-4 11-10 0-6-5-11-11-11z"/>
<glyph unicode="&#57395;" d="M503 443c-99 0-136 11-165 21-23 7-42 13-79 13l-140 0c-12 0-34-12-34-34 0-11 3-20 8-27-21-3-33-18-33-42 0-7 2-13 6-18-18-5-32-22-32-41 0-10 6-20 14-28-17-5-31-22-31-41 0-22 20-42 43-42l160 0c-5-23-15-77-15-111 0-18 4-34 13-44 8-9 19-15 30-15 19 0 34 14 34 33 0 78 72 171 162 171l59 0c5 0 9 4 9 8l0 188c0 5-4 9-9 9z"/>
<glyph unicode="&#57396;" d="M247 461l-145 0c-22 0-34-12-34-34 0-7 2-13 6-18-19-4-31-16-31-34 0-10 2-19 7-26-18-5-33-22-33-42 0-10 5-20 13-27-21-7-30-32-30-50 0-22 20-42 43-42l158 0c-9-25-27-80-18-112 13-47 40-50 48-50 19 0 34 16 34 36 0 70 62 147 110 170l0 208c-17 3-31 6-43 9-27 7-48 12-85 12z m256 17l-102 0c-5 0-8-4-8-9l0-256c0-4 3-8 8-8l102 0c0 0 0 0 0 0 3 0 5 0 6 2 2 2 3 4 3 6l0 256c0 5-4 9-9 9z m-64-60c-6 0-11 4-11 10 0 6 5 11 11 11 6 0 11-5 11-11 0-6-5-10-11-10z"/>
<glyph unicode="&#57397;" d="M368 512c-45 0-94-28-116-91-21 62-70 90-114 90-79 0-121-76-121-151 0-75 40-157 116-237 56-59 112-96 114-98 2-1 3-1 5-1 2 0 4 0 5 2 1 0 58 45 114 109 77 87 115 167 115 238 0 69-40 139-118 139z"/>
<glyph unicode="&#57398;" d="M256 512c-141 0-256-115-256-256 0-141 115-256 256-256 141 0 256 115 256 256 0 141-115 256-256 256z m3-389c-1 0-2 0-3 0-1 0-2 0-3 0-4 4-120 89-120 154 0 43 32 69 63 69 21 0 47-12 60-47 13 35 39 47 60 47 31 0 63-26 63-69 0-65-116-150-120-154z"/>
<glyph unicode="&#57399;" d="M428 299c0 0-1 0-1 0l-12 0c0-4 0-9 0-13 0-59-43-113-82-150l0-17c0-26 16-42 42-42 6 0 12 1 18 4l0 86c0 5 3 9 8 9 5 0 9-4 9-9l0-132c7-11 19-18 34-18 26 0 42 20 42 51l0 154c0 44-20 71-58 77z m-322 0l-12 0c-1 0-1 0-1 0-40-6-67-40-67-82l0-149c0-31 16-51 42-51 17 0 29 8 37 22l0 128c0 5 3 9 8 9 5 0 9-4 9-9l0-87c4-2 9-3 15-3 22 0 42 20 42 42l0 23c-36 35-74 86-74 144 0 4 1 9 1 13z m154 114c21 0 124 2 124 39 0 28-62 43-124 43-61 0-123-15-123-43 0-37 103-39 123-39z m0 65c71 0 107-18 107-26 0-6-32-22-107-22-75 0-106 16-106 22 0 8 37 26 106 26z m65-109c-3 0-6 0-9 0-1-1-3-1-5-1-1-1-2-1-3-1-2-1-5-1-8-2 0 0 0 0 0 0-12-5-24-14-32-26-1 0-1 0-1-1-2-3-5-7-7-11-5 11-12 20-20 27 0 1-1 1-2 2-2 1-3 3-5 4-1 0-2 1-3 2-2 1-4 2-6 3-1 0-2 1-3 1-2 1-4 2-6 2-1 0-2 1-3 1-2 1-4 1-7 2 0 0-1 0-2 0-3 0-6 1-9 1-35 0-71-30-71-86 0-58 41-108 78-142 12-10 23-19 32-26 1-1 3-2 4-3 11-7 18-12 19-12l0 0c1-1 3-2 4-2 2 0 4 1 5 2 1 0 4 2 8 5 28 21 125 96 125 178 0 54-38 83-73 83z"/>
<glyph unicode="&#57400;" d="M189 172c0 3 2 6 4 8l93 55-124 48c-3 1-5 4-5 7 0 3 1 6 4 8l82 51 0 81c-24 48-66 70-105 70-79 0-121-76-121-151 0-75 40-157 115-236 49-52 97-86 111-96l0 118-50 30c-2 1-4 4-4 7z m179 329c-40 0-83-22-108-71l0-86c0-3-1-5-4-7l-71-45 123-47c3-1 6-4 6-7 0-4-1-7-4-9l-96-57 42-25c3-1 4-4 4-7l0-123c13 11 62 52 111 107 76 87 115 167 115 238 0 69-41 139-118 139z"/>
<glyph unicode="&#57401;" d="M393 265c20 0 39-5 56-14 19 40 29 78 29 113 0 69-41 139-118 139-45 0-95-28-117-90-21 61-69 89-113 89-80 0-121-76-121-150 0-76 40-157 115-237 57-60 112-97 115-98 1-1 3-2 4-2 2 0 4 1 6 2 0 0 18 15 44 39-18 22-28 50-28 81 0 70 57 128 128 128z m0-18c-62 0-111-49-111-110 0-62 49-111 111-111 61 0 110 49 110 111 0 61-49 110-110 110z m59-119l-111 0c-4 0-8 4-8 9 0 4 4 8 8 8l111 0c5 0 9-4 9-8 0-5-4-9-9-9z"/>
<glyph unicode="&#57402;" d="M392 266c20 0 39-5 57-13 19 40 28 78 28 113 0 69-40 139-118 139-45 0-94-28-116-91-21 62-70 90-114 90-79 0-120-76-120-151 0-75 39-157 115-236 56-60 112-97 114-99 2 0 3-1 5-1 2 0 4 1 5 2 1 0 19 14 45 38-18 22-29 51-29 81 0 71 58 128 128 128z m0-17c-61 0-111-50-111-111 0-61 50-111 111-111 61 0 111 50 111 111 0 61-50 111-111 111z m59-119l-50 0 0-50c0-5-4-9-9-9-5 0-8 4-8 9l0 50-51 0c-4 0-8 4-8 8 0 5 4 9 8 9l51 0 0 50c0 5 3 9 8 9 5 0 9-4 9-9l0-50 50 0c5 0 8-4 8-9 0-4-3-8-8-8z"/>
<glyph unicode="&#57403;" d="M341 358l171 0 0-102-171 0z m-341 0l171 0 0-102-171 0z m383 31c24 25 24 64 0 89-12 11-28 18-44 18-17 0-33-7-44-18-15-15-31-63-40-95-9 32-25 80-40 95-11 11-27 18-44 18-16 0-32-7-44-18-24-25-24-64 0-89 11-10 40-22 67-31l-6 0 0-102 136 0 0 102-8 0c27 9 56 21 67 31z m-244 13c-17 17-17 46 0 64 9 8 20 13 32 13 12 0 24-5 32-13 14-14 31-71 40-104-33 9-90 26-104 40z m168 64c8 8 20 13 32 13 12 0 23-5 32-13 17-18 17-47 0-64-14-14-71-31-104-40 9 33 26 90 40 104z m-290-227l154 0 0-239-154 0z m324 0l154 0 0-239-154 0z m-153 0l136 0 0-239-136 0z"/>
<glyph unicode="&#57404;" d="M448 119l-188 111c-2 2-6 2-8 0l-188-111c-3-1-4-4-4-7 0-88 63-95 127-95 0 0 0 0 0 0 10 0 21 0 33 0 23 1 49 1 72 0 12 0 23 0 33 0 64 0 127 7 127 95 0 3-1 6-4 7z m0 265l-188 102c-2 2-6 2-8 0l-188-102c-3-2-4-5-4-8l0-68c0-3 1-6 4-7 2-2 6-2 8 0l184 100 184-100c1-1 2-1 4-1 1 0 3 0 4 1 3 1 4 4 4 7l0 68c0 3-1 6-4 8z m0-128l-188 102c-2 2-6 2-8 0l-188-102c-3-2-4-5-4-8l0-68c0-3 1-6 4-7 2-2 6-2 8 0l184 100 184-100c1-1 2-1 4-1 1 0 3 0 4 1 3 1 4 4 4 7l0 68c0 3-1 6-4 8z"/>
<glyph unicode="&#57405;" d="M456 383l-187 102c-3 2-6 2-9 0l-187-102c-3-2-5-4-5-8l0-68c0-3 2-6 4-7 3-2 6-2 9 0l184 100 183-100c1-1 3-1 4-1 2 0 3 0 5 1 2 1 4 4 4 7l0 68c0 4-2 6-5 8z m0-137l-187 103c-3 1-6 1-9 0l-187-103c-3-1-5-4-5-7l0-68c0-3 2-6 4-8 3-1 6-1 9 0l184 100 183-100c1-1 3-1 4-1 2 0 3 1 5 1 2 2 4 5 4 8l0 68c0 3-2 6-5 7z m0-145l-187 103c-3 1-6 1-9 0l-187-103c-3-1-5-4-5-7l0-68c0-3 2-6 4-8 3-1 6-1 9 0l184 100 183-100c1-1 3-1 4-1 2 0 3 0 5 1 2 2 4 5 4 8l0 68c0 3-2 6-5 7z"/>
<glyph unicode="&#57406;" d="M380 512c-3 0-6-1-7-4l-126-175c-16-2-31-9-43-21-12-12-19-27-21-43l-175-126c-2-1-4-4-4-6 0-44 85-128 128-128 3 0 6 1 7 3l122 171 121-129c2-2 4-3 6-3 1 0 2 0 3 1 4 1 6 4 6 8l0 51 51 0c3 0 6 2 8 5 1 3 1 7-2 9l-121 130 171 122c2 2 4 4 4 7 0 43-85 128-128 128z m-37-177l-42-42c7-9 11-21 11-33 0-15-6-29-17-40-10-10-24-16-39-16-12 0-24 4-33 11l-42-42c-2-1-4-2-6-2-2 0-4 1-6 2-3 4-3 9 0 12l42 42c-7 9-11 21-11 33 0 15 6 29 16 40 11 10 25 16 40 16 12 0 23-4 33-11l42 42c3 4 9 4 12 0 3-3 3-8 0-12z"/>
<glyph unicode="&#57407;" d="M512 318c-2 4-5 6-9 6l-181 0-58 182c-1 4-4 6-8 6-4 0-7-2-8-6l-58-182-181 0c-4 0-7-2-9-6-1-3 0-7 3-9l146-110-63-188c-1-3 0-7 3-9 1-1 3-2 5-2 2 0 3 1 5 2l157 115 157-115c3-3 7-3 10 0 3 2 4 6 3 9l-63 193 145 105c3 2 5 6 4 9z"/>
<glyph unicode="&#57408;" d="M256 512c-141 0-256-115-256-256 0-141 115-256 256-256 141 0 256 115 256 256 0 141-115 256-256 256z m156-217l-87-73 37-118c1-2 0-4-1-5-1-1-2-1-3-1-1 0-1 0-2 1l-100 75-100-75c-1-1-3-1-5 0-1 1-2 3-1 5l37 118-87 73c-2 2-2 3-2 5 1 2 3 3 4 3l108 0 42 100c1 3 7 3 8 0l42-100 108 0c1 0 3-1 4-3 0-2 0-3-2-5z"/>
<glyph unicode="&#57409;" d="M512 256c0 19-11 37-27 45 12 15 15 35 8 53-8 18-24 30-43 32 5 17 1 37-13 51-10 10-23 15-36 15-6 0-11-1-15-2-2 18-14 35-32 43-18 7-38 3-53-8-8 16-26 27-45 27-19 0-37-11-45-27-15 11-35 15-53 8-18-8-30-25-32-43-4 1-9 2-15 2-13 0-26-5-36-15-14-14-18-34-13-51-19-2-35-14-42-32-8-18-5-38 7-53-16-8-27-26-27-45 0-19 11-37 27-45-12-15-15-35-8-53 8-18 24-30 43-32-5-17-1-37 13-51 10-10 23-15 36-15 6 0 11 1 15 2 2-18 14-35 32-43 18-7 38-3 53 8 8-16 26-27 45-27 19 0 37 11 45 27 15-11 35-15 53-8 18 8 30 25 32 43 4-1 9-2 15-2 13 0 26 5 36 15 14 14 18 34 13 51 19 2 35 14 43 32 7 18 4 38-8 52 16 9 27 27 27 46z m-125 39l-72-62 30-104c1-2 0-3-1-4-1-1-2-1-3-1-1 0-1 0-2 0l-83 59-83-58c-1-2-3-2-5 0-1 1-2 2-1 4l30 104-72 62c-1 2-2 3-1 5 1 2 2 3 4 3l91 0 33 83c1 3 7 3 8 0l33-83 91 0c2 0 3-1 4-3 1-2 0-3-1-5z"/>
<glyph unicode="&#57410;" d="M418 512l-324 0c-53 0-94-41-94-94l0-324c0-53 41-94 94-94l324 0c53 0 94 41 94 94l0 324c0 53-41 94-94 94z m-6-217l-83-75 34-116c0-2-1-4-2-5-1-1-2-1-3-1-1 0-1 0-2 1l-100 75-100-75c-1-1-3-1-5 0-1 1-2 3-1 5l33 116-83 75c-2 2-2 4-2 5 1 2 3 3 4 3l108 0 42 108c1 3 7 3 8 0l42-108 108 0c1 0 3-1 4-3 0-1 0-3-2-5z"/>
<glyph unicode="&#57411;" d="M435 512l-358 0c-5 0-9-4-9-9l0-494c0-4 2-7 5-8 1-1 2-1 4-1 1 0 3 0 5 1l170 116 179-116c2-1 6-1 8 0 3 2 5 4 5 8l0 494c0 5-4 9-9 9z m-65-165l-58-58 16-83c1-2 0-4-1-5-1 0-2 0-3 0-1 0-1 0-2 0l-70 50-70-50c-2-1-4-1-5 0-2 1-2 3-2 5l17 83-58 58c-2 1-2 3-1 5 0 1 2 2 4 2l82 0 29 65c1 2 3 3 4 3 0 0 0 0 0 0 2 0 4-1 4-3l28-65 83 0c2 0 3-1 4-3 1-1 0-3-1-4z"/>
<glyph unicode="&#57412;" d="M43 347c0-146 80-278 209-346 2-1 3-1 4-1 2 0 3 0 4 1 129 68 209 200 209 346l0 80-426 0z m98-47c1 2 2 3 4 3l82 0 25 73c1 1 3 3 4 3 2 0 4-2 4-3l25-73 73 0c2 0 4-1 4-3 1-2 1-3-1-5l-57-49 33-82c0-2 0-4-2-5-1-1-3-1-5 0l-74 49-74-49c-1-1-2-1-3-1-1 0-2 0-2 1-2 1-2 3-2 5l33 82-65 49c-2 1-3 3-2 5z m320 212l-409 0c-5 0-9-4-9-9l0-59 426 0 0 59c0 5-3 9-8 9z"/>
<glyph unicode="&#57413;" d="M473 400l-205 111c-2 1-5 1-8 0l-204-111c-3-1-5-4-5-7l0-350c0-5 4-9 9-9l409 0c5 0 9 4 9 9l0 350c0 3-2 6-5 7z m-69-87l-71-80 30-112c0-2-1-4-2-5-2-1-4-1-5 0l-91 66-92-66c-1-1-1-1-2-1-1 0-2 0-3 1-1 1-2 3-1 5l28 112-70 80c-1 1-2 3-1 4 1 2 2 3 4 3l91 0 42 100c1 3 6 3 7 0l42-100 91 0c2 0 3-1 4-3 1-1 0-3-1-4z m65-296l-409 0c-5 0-9-4-9-8 0-5 4-9 9-9l409 0c4 0 8 4 8 9 0 4-4 8-8 8z"/>
<glyph unicode="&#57414;" d="M333 282c2 0 4 0 5 2 3 2 4 6 3 10l-32 71 55 47c3 2 4 6 2 9-1 3-4 6-8 6l-70 0-24 79c-1 4-4 6-8 6-4 0-7-2-8-6l-24-79-70 0c-4 0-7-3-8-6-2-3-1-7 2-9l55-46-32-72c-1-4 0-8 3-10 3-3 7-3 10-1l72 48 72-48c2-1 3-1 5-1z m178-134c-1 3-4 6-8 6l-70 0-24 79c-1 3-4 6-8 6-4 0-7-3-8-6l-24-79-70 0c-4 0-7-3-8-6-2-3-1-7 2-9l55-46-32-73c-1-3 0-7 3-9 3-3 7-3 10-1l72 48 72-48c2-1 3-1 5-1 2 0 4 0 5 2 3 2 4 6 3 9l-32 72 55 47c3 2 4 6 2 9z m-298 6l-70 0-24 79c-1 3-4 6-8 6-4 0-7-3-8-6l-24-79-70 0c-4 0-7-3-8-6-2-3-1-7 2-9l55-46-32-73c-1-3 0-7 3-9 3-3 7-3 10-1l72 48 72-48c1-1 3-1 5-1 2 0 4 0 5 2 3 2 4 6 3 9l-32 72 55 47c3 2 4 6 2 9-1 3-4 6-8 6z"/>
<glyph unicode="&#57415;" d="M439 295l-124 19-57 104-57-104-124-19 95-85-29-124 115 57 113-57-27 124z"/>
<glyph unicode="&#57416;" d="M512 256c0 3-1 5-3 7l-42 35 25 49c1 2 1 5 1 7-1 2-3 4-6 5l-53 16 5 55c1 3 0 5-2 7-2 2-4 3-7 2l-55-5-16 53c-1 3-3 5-5 5-2 1-5 1-7 0l-49-25-35 42c-4 4-10 4-14 0l-35-42-49 25c-2 1-5 1-7 0-2 0-4-2-5-5l-16-53-55 5c-3 1-5 0-7-2-2-2-3-4-2-7l5-55-53-16c-3-1-5-3-6-5 0-2 0-5 1-7l25-49-42-35c-2-2-3-4-3-7 0-3 1-5 3-7l42-35-25-49c-1-2-1-5-1-7 1-2 3-4 6-5l53-16-5-55c-1-3 0-5 2-7 2-2 4-3 7-2l55 5 16-53c1-3 3-5 5-6 2 0 5 0 7 1l49 25 35-42c2-2 4-3 7-3 3 0 5 1 7 3l35 42 49-25c2-1 5-1 7-1 2 1 4 3 5 6l16 53 55-5c3-1 5 0 7 2 2 2 3 4 2 7l-5 55 53 16c3 1 5 3 6 5 0 2 0 5-1 7l-25 49 42 35c2 2 3 4 3 7z m-143 22l-65-49 33-82c0-2 0-4-2-5 0-1-1-1-2-1-1 0-2 0-3 1l-74 58-74-58c-2-2-4-2-5 0-2 1-2 3-2 5l33 82-65 49c-2 1-3 3-2 5 1 2 2 3 4 3l74 0 33 79c1 2 2 3 4 3 2 0 3-1 4-3l33-79 74 0c2 0 3-1 4-3 1-2 0-4-2-5z"/>
<glyph unicode="&#57417;" d="M512 463c0 2 0 5 0 6 0 5-4 9-8 9l-46 0c0 8 1 17 1 25 0 5-4 9-9 9l-387 0c-5 0-9-4-9-9 0-8 0-17 1-25l-46 0c-5 0-9-4-9-9 0-2 0-5 0-8 0-37-1-112 39-153 16-16 37-25 63-26 23-34 51-51 74-65 30-18 50-30 50-68-2-75-30-89-81-89-4 0-8-4-8-9l0-42c0-5 4-9 8-9l222 0c5 0 9 4 9 9l0 42c0 5-4 9-9 9-55 0-81 28-81 88 0 39 20 51 50 70 23 14 51 30 74 64 25 1 46 10 62 26 42 43 41 124 40 155z m-461-143c-35 36-34 106-34 140 0 1 0 1 0 1l38 0c4-76 18-126 36-161-16 2-29 9-40 20z m276 78l-40-33 16-48c1-2 0-4-2-5 0 0-1-1-2-1-1 0-2 1-3 1l-40 32-40-32c-1-1-3-1-5 0-1 1-2 3-1 5l16 48-41 33c-1 1-2 3-1 4 1 2 2 3 4 3l48 0 16 36c0 1 2 2 4 2 1 0 3-1 3-2l17-36 48 0c2 0 4-1 5-3 0-1 0-3-2-4z m133-78c-11-11-24-17-39-20 18 35 33 85 36 161l38 0c1-30 1-104-35-141z"/>
<glyph unicode="&#57418;" d="M256 486c-141 0-256-94-256-210 0-54 27-107 74-147l-56-104c-2-4-1-8 1-10 2-2 4-3 6-3 1 0 3 0 4 1l142 67c23-7 52-14 85-14 141 0 256 94 256 210 0 116-115 210-256 210z"/>
<glyph unicode="&#57419;" d="M503 469l-494 0c-5 0-9-3-9-8l0-324c0-5 4-9 9-9l145 0 0-77c0-3 2-6 5-8 1 0 2 0 3 0 2 0 5 1 6 2l83 83 252 0c5 0 9 4 9 9l0 324c0 5-4 8-9 8z"/>
<glyph unicode="&#57420;" d="M341 495l-170 0c-91 0-171-83-171-179 0-93 76-169 169-169 0 0 0 0 0 0l10-1 0-78c0-3 2-6 5-8 1 0 3 0 4 0 2 0 4 0 5 2l92 83 56 0c93 0 171 79 171 171 0 96-80 179-171 179z"/>
<glyph unicode="&#57421;" d="M384 239c29 0 55-10 77-26l0 273c0 5-4 9-9 9l-443 0c-5 0-9-4-9-9l0-307c0-5 4-8 9-8l76 0 0-69c0-3 2-6 5-7 1-1 3-1 4-1 2 0 3 0 5 2l100 75 72 0c21 40 64 68 113 68z m0-17c-61 0-111-50-111-111 0-61 50-111 111-111 61 0 111 50 111 111 0 61-50 111-111 111z m54-120l-45 0 0-45c0-5-4-8-9-8-5 0-9 3-9 8l0 45-45 0c-5 0-8 4-8 9 0 5 3 8 8 8l45 0 0 46c0 4 4 8 9 8 5 0 9-4 9-8l0-46 45 0c5 0 8-3 8-8 0-5-3-9-8-9z"/>
<glyph unicode="&#57422;" d="M401 273c25 0 49-7 69-20 9 21 14 43 14 67 0 106-105 192-233 192-129 0-234-86-234-192 0-49 24-97 67-134l-51-94c-1-4-1-8 2-10 1-2 3-3 6-3 1 0 2 0 3 1l129 61c21-7 48-13 78-13 8 0 15 0 23 1 0 5-1 10-1 16 0 71 57 128 128 128z m0-17c-61 0-111-50-111-111 0-61 50-111 111-111 61 0 111 50 111 111 0 61-50 111-111 111z m59-119l-50 0 0-51c0-4-4-8-9-8-5 0-8 4-8 8l0 51-51 0c-4 0-8 3-8 8 0 5 4 9 8 9l51 0 0 50c0 4 3 8 8 8 5 0 9-4 9-8l0-50 50 0c4 0 8-4 8-9 0-5-4-8-8-8z"/>
<glyph unicode="&#57423;" d="M410 241c10 0 20-2 30-4 22 26 36 61 36 98 0 85-73 160-156 160l-155 0c-83 0-156-75-156-160 0-85 69-153 154-153 0 0 0 0 0 0l9-1 0-68c0-4 2-7 5-8 1 0 2-1 3-1 2 0 4 1 6 2l83 75 42 0c18 35 56 60 99 60z m0-17c-52 0-94-42-94-94 0-52 42-94 94-94 51 0 93 42 93 94 0 52-42 94-93 94z m51-103l-43 0 0-42c0-5-4-9-8-9-5 0-9 4-9 9l0 42-43 0c-4 0-8 4-8 9 0 5 4 8 8 8l43 0 0 43c0 5 4 9 9 9 4 0 8-4 8-9l0-43 43 0c5 0 8-3 8-8 0-5-3-9-8-9z"/>
<glyph unicode="&#57424;" d="M271 209c0-3-2-5-4-5-3 0-5 2-5 5 0 2 2 4 5 4 2 0 4-2 4-4z m232 260l-494 0c-5 0-9-3-9-8l0-324c0-5 4-9 9-9l128 0 0-77c0-3 2-6 5-8 1 0 2 0 3 0 2 0 4 0 6 2l91 83 261 0c5 0 9 4 9 9l0 324c0 5-4 8-9 8z m-236-282c-12 0-22 10-22 22 0 12 10 21 22 21 12 0 21-9 21-21 0-12-9-22-21-22z m8 89l0-13c0-5-4-9-8-9-5 0-9 4-9 9l0 21c0 5 4 9 9 9 31 0 56 25 56 56 0 31-25 56-56 56-31 0-56-25-56-56 0-5-4-9-9-9-5 0-8 4-8 9 0 40 32 73 73 73 40 0 73-33 73-73 0-38-28-69-65-73z"/>
<glyph unicode="&#57425;" d="M256 512c-141 0-256-94-256-210 0-56 26-107 72-147l-54-109c-2-3-1-7 2-9 1-2 3-3 6-3 1 0 2 0 3 1l141 68c28-8 56-12 86-12 141 0 256 95 256 211 0 116-115 210-256 210z m9-324c-10 0-18 7-18 17 0 9 8 17 18 17 9 0 17-8 17-17 0-10-8-17-17-17z m8 85l0-26c0-4-4-8-8-8-5 0-9 4-9 8l0 35c0 4 4 8 9 8 33 0 58 22 58 51 0 31-25 56-56 56-31 0-56-27-56-58 0-4-4-8-9-8-5 0-8 4-8 8 0 41 32 75 73 75 40 0 73-33 73-73 0-35-29-64-67-68z"/>
<glyph unicode="&#57426;" d="M350 285c3 6 14 6 17 0l51-97 34 0c5 0 9 4 9 8l0 307c0 5-4 9-9 9l-443 0c-5 0-9-4-9-9l0-307c0-4 4-8 9-8l76 0 0-69c0-3 2-6 5-7 1-1 3-1 4-1 2 0 3 1 5 2l100 75 99 0z m135-263l-119 238c-3 6-12 6-15 0l-120-239c-1-3-1-6 1-8 1-3 4-4 7-4l239 0c0 0 0 0 0 0 5 0 9 3 9 8 0 2-1 4-2 5z m-135 142c0 5 4 9 8 9 5 0 9-4 9-9l0-70c0-5-4-9-9-9-4 0-8 4-8 9z m8-130c-9 0-17 8-17 17 0 10 8 17 17 17 10 0 17-7 17-17 0-9-7-17-17-17z"/>
<glyph unicode="&#57427;" d="M503 461l-494 0c-5 0-9-4-9-9l0-341c0-5 4-9 9-9l145 0 0-76c0-4 2-7 5-8 1-1 2-1 3-1 2 0 5 1 6 3l81 82 254 0c5 0 9 4 9 9l0 341c0 5-4 9-9 9z m-264-77c0 5 4 9 8 9 5 0 9-4 9-9l0-128c0-5-4-9-9-9-4 0-8 4-8 9z m8-188c-9 0-17 8-17 17 0 10 8 17 17 17 10 0 18-7 18-17 0-9-8-17-18-17z"/>
<glyph unicode="&#57428;" d="M256 512c-141 0-256-94-256-210 0-56 26-107 72-147l-54-109c-2-3-1-7 2-9 1-2 3-3 6-3 1 0 2 0 3 1l141 68c28-8 56-12 86-12 141 0 256 95 256 211 0 116-115 210-256 210z m-17-111c0 5 4 9 8 9 5 0 9-4 9-9l0-129c0-5-4-8-9-8-4 0-8 3-8 8z m21-182c-3-4-8-6-12-6 0 0 0 0-1 0-9 0-16 8-17 17 0 5 2 9 5 12 3 4 8 5 12 5 0 0 0 0 0 0 10 0 17-7 18-16 0-5-2-9-5-12z"/>
<glyph unicode="&#57429;" d="M276 121l82 156c3 6 14 6 17 0l47-88c34 33 54 76 54 122 0 106-105 192-234 192-129 0-233-86-233-192 0-48 24-97 67-133l-51-95c-2-3-1-7 1-10 2-2 4-2 6-2 1 0 3 0 4 0l129 61c21-6 48-13 77-13 12 0 23 1 34 2z m217-107l-118 237c-3 6-13 6-16 0l-119-239c-1-2-1-5 0-8 2-2 5-4 7-4l239 0c0 0 1 0 1 0 4 0 8 4 8 9 0 1-1 3-2 5z m-135 142c0 4 4 8 9 8 5 0 8-4 8-8l0-71c0-4-3-8-8-8-5 0-9 4-9 8z m9-130c-9 0-17 7-17 17 0 9 8 17 17 17 9 0 17-8 17-17 0-10-8-17-17-17z"/>
<glyph unicode="&#57430;" d="M288 201l66 124c3 6 14 6 17 0l46-87c33 29 55 71 55 117 0 85-73 160-156 160l-156 0c-83 0-156-75-156-160 0-84 70-153 155-153 0 0 0 0 0 0l8-1 0-68c0-3 2-6 5-8 1 0 3-1 4-1 2 0 4 1 5 3l84 74z m201-139l-119 237c-3 6-12 6-15 0l-119-239c-2-2-2-5 0-8 2-2 4-4 7-4l239 0c0 0 0 0 0 0 5 0 9 4 9 9 0 2-1 3-2 5z m-135 142c0 5 4 8 9 8 4 0 8-3 8-8l0-71c0-4-4-8-8-8-5 0-9 4-9 8z m9-130c-10 0-17 7-17 17 0 9 7 17 17 17 9 0 17-8 17-17 0-10-8-17-17-17z"/>
<glyph unicode="&#57431;" d="M386 256c29 0 56-10 77-26l0 273c0 5-4 9-9 9l-443 0c-5 0-9-4-9-9l0-307c0-4 4-8 9-8l76 0 0-69c0-3 2-6 5-7 1-1 3-1 4-1 2 0 4 1 5 2l100 75 72 0c21 40 64 68 113 68z m62-78l-111-112c13-11 30-17 49-17 44 0 79 35 79 79 0 19-6 36-17 50z m-62 29c-44 0-79-35-79-79 0-19 6-36 17-50l112 112c-14 11-31 17-50 17z m0 32c-61 0-111-50-111-111 0-61 50-111 111-111 61 0 111 50 111 111 0 61-50 111-111 111z m0-207c-53 0-96 43-96 96 0 53 43 96 96 96 53 0 96-43 96-96 0-53-43-96-96-96z"/>
<glyph unicode="&#57432;" d="M393 239c22 0 43-6 62-16 13 24 21 51 21 80 0 106-105 192-234 192-129 0-233-86-233-192 0-49 24-97 67-134l-51-94c-2-4-1-8 1-10 2-2 4-3 6-3 1 0 3 0 4 1l129 60c21-6 48-12 77-12 8 0 15 0 23 0 0 71 57 128 128 128z m61-78l-111-112c14-11 31-17 50-17 43 0 79 35 79 79 0 19-7 36-18 50z m-61 29c-44 0-80-35-80-79 0-19 7-36 18-50l111 112c-13 11-31 17-49 17z m0 32c-62 0-111-50-111-111 0-61 49-111 111-111 61 0 110 50 110 111 0 61-49 111-110 111z m0-207c-54 0-97 43-97 96 0 53 43 96 97 96 53 0 96-43 96-96 0-53-43-96-96-96z"/>
<glyph unicode="&#57433;" d="M393 291c22 0 44-6 62-16 13 22 21 48 21 76 0 85-73 160-156 160l-155 0c-83 0-156-75-156-160 0-84 69-153 154-153 0 0 0 0 0 0l9-1 0-68c0-3 2-6 5-8 1 0 2-1 3-1 2 0 4 1 6 3l83 74 0 0c15 54 64 94 124 94z m61-78l-111-112c14-11 31-17 50-17 43 0 79 35 79 79 0 19-7 36-18 50z m-61 29c-44 0-80-35-80-79 0-19 7-36 18-50l111 112c-13 11-31 17-49 17z m0 32c-62 0-111-50-111-111 0-61 49-111 111-111 61 0 110 50 110 111 0 61-49 111-110 111z m0-207c-54 0-97 43-97 96 0 53 43 96 97 96 53 0 96-43 96-96 0-53-43-96-96-96z"/>
<glyph unicode="&#57434;" d="M482 469l-452 0c-18 0-30-13-30-34l0-277c0-17 13-30 30-30l21 0 0-68c0-4 2-6 5-8 1-1 2-1 4-1 2 0 3 1 5 2l97 75 320 0c17 0 30 13 30 30l0 277c0 21-12 34-30 34z m-314-190c-15 0-27 13-27 28 0 16 12 28 27 28 16 0 28-12 28-28 0-15-12-28-28-28z m99 0c-16 0-28 13-28 28 0 16 12 28 28 28 15 0 28-12 28-28 0-15-13-28-28-28z m98 0c-16 0-28 13-28 28 0 16 12 28 28 28 15 0 28-12 28-28 0-15-13-28-28-28z"/>
<glyph unicode="&#57435;" d="M256 301c-1 0-2-1-2-2 0-3 4-3 4 0 0 1-1 2-2 2z m-102 0c-2 0-2-1-2-2 0-3 4-3 4 0 0 1-1 2-2 2z m204 0c-1 0-2-1-2-2 0-3 4-3 4 0 0 1 0 2-2 2z m145 168l-494 0c-5 0-9-3-9-8l0-342c0-4 4-8 9-8l145 0 0-77c0-3 2-6 5-8 1 0 2 0 3 0 2 0 5 0 6 2l81 83 254 0c5 0 9 4 9 8l0 342c0 5-4 8-9 8z m-349-194c-13 0-24 11-24 24 0 13 11 23 24 23 13 0 23-10 23-23 0-13-10-24-23-24z m102 0c-13 0-24 11-24 24 0 13 11 23 24 23 13 0 24-10 24-23 0-13-11-24-24-24z m102 0c-13 0-23 11-23 24 0 13 10 23 23 23 13 0 24-10 24-23 0-13-11-24-24-24z"/>
<glyph unicode="&#57436;" d="M384 256c29 0 55-10 77-26l0 273c0 5-4 9-9 9l-443 0c-5 0-9-4-9-9l0-307c0-4 4-8 9-8l76 0 0-69c0-3 2-6 5-7 1-1 3-1 4-1 2 0 3 1 5 2l100 75 72 0c21 40 64 68 113 68z m0-17c-61 0-111-50-111-111 0-61 50-111 111-111 61 0 111 50 111 111 0 61-50 111-111 111z m75-82l-84-97-57 53c-3 3-3 9 0 12 3 4 9 4 12 1l44-42 72 84c3 3 8 4 12 1 3-3 4-9 1-12z"/>
<glyph unicode="&#57437;" d="M393 265c26 0 51-8 71-21 8 18 12 38 12 59 0 106-105 192-234 192-129 0-233-86-233-192 0-49 24-97 67-134l-51-94c-2-4-1-8 1-10 2-2 4-3 6-3 1 0 3 0 4 1l129 60c21-6 48-12 77-12 5 0 10 0 15 0-1 6-1 11-1 17 0 75 61 137 137 137z m0-18c-66 0-120-53-120-119 0-66 54-119 120-119 65 0 119 53 119 119 0 66-54 119-119 119z m79-79l-97-107-62 61c-3 3-3 9 0 12 4 3 9 3 12 0l49-48 85 93c4 4 9 4 12 1 4-3 4-9 1-12z"/>
<glyph unicode="&#57438;" d="M401 257c10 0 20-2 30-4 23 27 37 61 37 98 0 85-73 160-156 160l-156 0c-83 0-156-75-156-160 0-84 70-153 155-153 0 0 0 0 0 0l8-1 0-68c0-3 2-6 5-8 1 0 3-1 4-1 2 0 4 1 5 3l83 74 42 0c19 35 56 60 99 60z m0-17c-52 0-94-42-94-94 0-52 42-94 94-94 52 0 94 42 94 94 0 52-42 94-94 94z m66-74l-74-75-49 49c-4 3-4 9 0 12 3 3 9 3 12 0l37-37 62 63c3 3 8 3 12 0 3-4 3-9 0-12z"/>
<glyph unicode="&#57439;" d="M503 469l-494 0c-5 0-9-3-9-8l0-324c0-5 4-9 9-9l128 0 0-77c0-3 1-6 4-8 2 0 3 0 4 0 2 0 4 0 6 2l97 83 255 0c5 0 9 4 9 9l0 324c0 5-4 8-9 8z m-387-85l194 0c5 0 8-4 8-9 0-4-3-8-8-8l-194 0c-5 0-8 4-8 8 0 5 3 9 8 9z m280-154l-280 0c-5 0-8 4-8 9 0 5 3 8 8 8l280 0c5 0 8-3 8-8 0-5-3-9-8-9z m0 67l-280 0c-5 0-8 4-8 9 0 4 3 8 8 8l280 0c5 0 8-4 8-8 0-5-3-9-8-9z"/>
<glyph unicode="&#57440;" d="M256 512c-141 0-256-96-256-214 0-53 27-106 75-147l-55-104c-2-4-2-8 1-10 2-2 4-3 6-3 1 0 3 0 4 1l140 67c24-7 53-14 85-14 141 0 256 94 256 210 0 118-115 214-256 214z m-97-145l140 0c5 0 9-4 9-9 0-4-4-8-9-8l-140 0c-5 0-8 4-8 8 0 5 3 9 8 9z m205-154l-205 0c-5 0-8 4-8 9 0 5 3 8 8 8l205 0c4 0 8-3 8-8 0-5-4-9-8-9z m0 69l-205 0c-5 0-8 3-8 8 0 5 3 9 8 9l205 0c4 0 8-4 8-9 0-5-4-8-8-8z"/>
<glyph unicode="&#57441;" d="M503 256l-327 0-77-58c-2-1-3-2-5-2-1 0-3 1-4 1-3 2-5 5-5 8l0 51-76 0c-5 0-9-4-9-9l0-153c0-5 4-9 9-9l295 0 91-83c2-1 4-2 6-2 1 0 2 0 4 1 3 1 5 4 5 8l0 76 93 0c5 0 9 4 9 9l0 153c0 5-4 9-9 9z m0 239l-494 0c-5 0-9-4-9-9l0-170c0-5 4-9 9-9l93 0 0-85 46 34 18 14 48 35 2 2 287 0c5 0 9 4 9 9l0 170c0 5-4 9-9 9z"/>
<glyph unicode="&#57442;" d="M427 469c0 5-4 9-9 9l-409 0c-5 0-9-4-9-9l0-255c0-5 4-9 9-9l59 0 0-77c0-3 2-6 6-8 1 0 2 0 3 0 2 0 4 1 6 2l83 83 39 0 0 94c0 5 4 9 8 9l214 0z m76-178l-281 0 0-180c0-4 4-8 8-8l133 0 83-91c2-2 4-3 6-3 1 0 2 0 3 0 4 2 6 5 6 8l0 86 42 0c5 0 9 4 9 8l0 171c0 5-4 9-9 9z"/>
<glyph unicode="&#57443;" d="M94 137c-24 0-43-20-43-43 0-24 19-43 43-43 24 0 43 19 43 43 0 23-19 43-43 43z m-60-120c0-9-8-17-17-17-9 0-17 8-17 17 0 9 8 17 17 17 9 0 17-8 17-17z m309 495c-59 0-115-31-147-83-20 13-43 20-67 20-71 0-129-60-129-132 0-73 58-132 129-132 0 0 0 0 0 0 25-34 63-53 104-53 29 0 57 10 79 27 10-2 21-3 31-3 95 0 169 78 169 177 0 100-74 179-169 179z m-197-226c-15 0-28 12-28 28 0 15 13 27 28 27 15 0 28-12 28-27 0-16-13-28-28-28z m106 0c-15 0-28 12-28 28 0 15 13 27 28 27 15 0 27-12 27-27 0-16-12-28-27-28z m106 0c-16 0-28 12-28 28 0 15 12 27 28 27 15 0 27-12 27-27 0-16-12-28-27-28z"/>
<glyph unicode="&#57444;" d="M512 187c0 35-26 60-60 60l-53 0c-22-25-56-42-92-42l-66 0c-1-6-2-11-2-18l-1-39c0-33 26-61 59-63 0 0 1 0 1 0l48 0 66-65c1-2 4-3 6-3 1 0 2 0 3 1 3 1 5 4 5 8l0 59 24 0c1 0 1 0 2 0 34 2 60 29 60 63z m-103 129l0 68c0 50-48 94-102 94l-213 0c-53 0-94-41-94-94l0-77c0-49 39-85 94-85l25 0 0-85c0-4 2-7 6-8 1-1 2-1 3-1 2 0 4 1 6 3l82 91 91 0c54 0 102 44 102 94z"/>
<glyph unicode="&#57445;" d="M353 325c10 0 19-1 29-3 2 17 1 30 1 33 0 86-86 157-192 157-105 0-191-71-191-158 0-42 17-81 49-109l-39-70c-2-3-2-7 1-10 1-2 4-3 6-3 1 0 2 0 3 1l108 41c10-3 23-7 33-8 6 0 12-1 18-1 14 72 88 130 174 130z m0-17c-86 0-159-63-159-138 0-10 1-19 3-28 15-63 78-112 151-112 0 0 1 0 1 0 5 0 10 0 15 0 1 1 3 1 5 1 3 1 7 1 10 2 2 0 4 1 6 1 3 1 6 1 9 2 2 1 4 2 6 2 3 2 6 3 10 4l3-1c0 0 0 0 0 0l79-32c1 0 2 0 3 0 2 0 5 1 6 2 3 3 3 7 2 10l-32 61c3 2 5 4 7 7 2 1 3 2 4 4 2 1 3 3 5 5 1 1 2 3 3 4 1 2 2 4 4 6 1 1 2 3 3 5 1 1 2 3 2 5 1 2 2 4 3 5 1 2 2 4 2 5 1 2 2 4 3 7 0 1 0 3 1 5 1 2 1 4 2 6 0 2 0 4 1 6 0 2 0 4 0 6 1 4 1 8 1 12 0 75-73 138-159 138z"/>
<glyph unicode="&#57446;" d="M155 306c0-3-3-6-7-6-3 0-6 3-6 6 0 4 3 7 6 7 4 0 7-3 7-7z m215 0c0-3-3-6-6-6-4 0-7 3-7 6 0 4 3 7 7 7 3 0 6-3 6-7z m-108 0c0-3-3-6-6-6-3 0-6 3-6 6 0 4 3 7 6 7 3 0 6-3 6-7z m-6 206c-141 0-256-96-256-214 0-55 26-107 72-146l-53-106c-1-3-1-7 2-9 2-2 4-3 6-3 1 0 3 0 4 1l139 65c28-8 56-12 86-12 141 0 256 94 256 210 0 118-115 214-256 214z m-108-234c-15 0-27 13-27 28 0 16 12 28 27 28 16 0 28-12 28-28 0-15-12-28-28-28z m108 0c-15 0-28 13-28 28 0 16 13 28 28 28 15 0 28-12 28-28 0-15-13-28-28-28z m108 0c-16 0-28 13-28 28 0 16 12 28 28 28 15 0 27-12 27-28 0-15-12-28-27-28z"/>
<glyph unicode="&#57447;" d="M384 239c29 0 55-10 77-26l0 273c0 5-4 9-9 9l-443 0c-5 0-9-4-9-9l0-307c0-5 4-8 9-8l76 0 0-69c0-3 2-6 5-7 1-1 3-1 4-1 2 0 3 0 5 2l100 75 72 0c21 40 64 68 113 68z m0-17c-61 0-111-50-111-111 0-61 50-111 111-111 61 0 111 50 111 111 0 61-50 111-111 111z m57-156c4-4 4-9 0-12-1-2-4-3-6-3-2 0-4 1-6 3l-45 45-45-45c-2-2-4-3-6-3-2 0-5 1-6 3-4 3-4 8 0 12l45 45-45 45c-4 3-4 9 0 12 3 3 8 3 12 0l45-45 45 45c4 3 9 3 12 0 4-3 4-9 0-12l-45-45z"/>
<glyph unicode="&#57448;" d="M391 256c26 0 50-8 70-21 9 21 15 44 15 68 0 106-105 192-234 192-129 0-233-86-233-192 0-49 24-97 67-134l-51-94c-2-4-1-8 1-10 2-2 4-3 6-3 1 0 3 0 4 1l129 60c21-6 48-12 77-12 8 0 15 0 23 1-1 5-2 10-2 16 0 71 58 128 128 128z m0-17c-61 0-110-50-110-111 0-61 49-111 110-111 62 0 111 50 111 111 0 61-49 111-111 111z m58-156c3-4 3-9 0-12-2-2-4-3-6-3-3 0-5 1-6 3l-46 45-45-45c-1-2-4-3-6-3-2 0-4 1-6 3-3 3-3 8 0 12l45 45-45 45c-3 4-3 9 0 12 4 4 9 4 12 0l45-45 46 45c3 4 8 4 12 0 3-3 3-8 0-12l-45-45z"/>
</font>
</defs>
</svg>
